<svg width="761" height="580" viewBox="0 0 761 580" fill="none" xmlns="http://www.w3.org/2000/svg">
<path d="M651.498 569.743C651.498 575.138 530.398 579.486 381.17 579.486C231.942 579.486 110.824 575.138 110.824 569.743C110.824 564.349 231.924 560.019 381.17 560.019C530.416 560.019 651.498 564.367 651.498 569.743Z" fill="#FD6F00"/>
<path opacity="0.6" d="M651.498 569.743C651.498 575.138 530.398 579.486 381.17 579.486C231.942 579.486 110.824 575.138 110.824 569.743C110.824 564.349 231.924 560.019 381.17 560.019C530.416 560.019 651.498 564.367 651.498 569.743Z" fill="white"/>
<path d="M125.467 266.04C125.577 266.04 124.201 259.196 124.054 258.701C122.477 253.82 116.55 245.306 110.789 245.306C109.833 245.336 108.894 245.566 108.033 245.982C107.172 246.398 106.408 246.99 105.79 247.72C105.173 248.45 104.715 249.302 104.448 250.22C104.181 251.138 104.109 252.102 104.238 253.049C104.66 257.086 108.293 260.535 111.578 262.517C115.431 264.921 125.467 266.04 125.467 266.04Z" fill="#FD6F00"/>
<path d="M136.604 219.949C131.191 221.894 128.512 231.912 128.677 237.049C128.677 237.49 129.705 244.389 129.815 244.389H129.925C129.484 245.967 129.026 247.655 128.567 249.526C127.76 252.976 126.879 256.866 126.2 261.196C125.413 265.835 124.898 270.515 124.659 275.214C124.375 280.48 124.553 285.76 125.191 290.994C125.198 291.055 125.198 291.116 125.191 291.177C124.494 289.654 122.365 285.453 122.163 285.141C119.338 280.847 111.375 274.132 105.815 275.728C104.904 276.009 104.062 276.478 103.344 277.105C102.625 277.732 102.047 278.503 101.645 279.368C101.244 280.233 101.029 281.172 101.014 282.126C100.999 283.079 101.184 284.025 101.558 284.902C103.026 288.7 107.43 291.049 111.118 292.113C115.283 293.287 124.567 291.893 125.301 291.783C126.097 297.087 127.237 302.333 128.714 307.489C129.576 310.498 130.549 313.507 131.503 316.498C130.861 315.195 130.255 314.039 130.163 313.893C127.338 309.599 119.374 302.884 113.815 304.48C112.904 304.761 112.062 305.23 111.343 305.857C110.625 306.484 110.047 307.255 109.645 308.12C109.244 308.985 109.029 309.924 109.014 310.878C108.999 311.831 109.184 312.777 109.558 313.654C111.026 317.434 115.43 319.801 119.118 320.847C122.806 321.893 130.806 320.847 132.897 320.59C133.283 321.728 133.668 322.883 134.072 324.021C135.906 329.526 137.888 335.03 139.576 340.425C140.182 342.259 140.695 344.241 141.227 346.149C140.659 344.993 140.145 344.021 140.053 343.892C137.246 339.581 129.264 332.883 123.723 334.48C122.81 334.759 121.966 335.226 121.246 335.853C120.526 336.479 119.945 337.249 119.542 338.115C119.139 338.98 118.922 339.92 118.906 340.874C118.89 341.829 119.074 342.776 119.448 343.654C120.916 347.434 125.338 349.801 129.026 350.846C132.714 351.892 139.925 350.975 142.42 350.626C142.916 352.59 143.411 354.571 143.796 356.498C144.016 357.819 144.328 359.067 144.493 360.424L145.044 364.351C145.301 366.865 145.594 369.452 145.778 371.911C145.925 373.635 146.035 375.268 146.145 376.901C145.576 375.066 144.31 371.268 144.31 370.975C142.279 366.937 139.246 363.488 135.503 360.956C135.294 360.497 135.049 360.055 134.769 359.635C134.246 358.836 133.56 358.154 132.757 357.636C131.954 357.118 131.051 356.774 130.107 356.627C129.162 356.48 128.197 356.533 127.275 356.783C126.352 357.032 125.492 357.473 124.751 358.076C120.402 361.837 121.485 372.149 123.485 376.883C123.595 377.158 125.319 380.057 126.273 381.855L123.943 378.956C122.329 376.993 120.677 375.085 118.916 373.03C118.011 372.076 117.112 371.103 116.219 370.112C115.338 369.122 114.292 368.186 113.32 367.195C111.008 364.975 108.567 362.828 105.98 360.736C107.705 359.323 113.705 354.259 115.43 350.81C117.154 347.36 118.384 342.535 116.586 338.883C116.19 338.015 115.617 337.239 114.902 336.606C114.188 335.974 113.348 335.498 112.438 335.211C111.528 334.924 110.568 334.831 109.62 334.939C108.671 335.047 107.756 335.353 106.934 335.837C102.054 338.883 101.558 349.25 102.824 354.186C102.824 354.498 104.219 357.984 104.971 359.874C103.448 358.608 101.943 357.36 100.365 356.204C95.8151 352.7 91.1913 349.287 86.4207 345.856L82.1455 342.681C82.751 342.186 90.017 336.315 91.9619 332.443C93.6867 329.012 94.916 324.168 93.1179 320.535C92.7247 319.662 92.1518 318.882 91.4367 318.246C90.7216 317.609 89.8803 317.131 88.9678 316.842C88.0553 316.553 87.092 316.459 86.141 316.568C85.1899 316.676 84.2723 316.984 83.4482 317.471C78.5859 320.535 78.0905 330.883 79.3565 335.819C79.4483 336.186 81.3382 341.177 81.8886 342.425C78.751 340.094 75.6501 337.746 72.7144 335.305C68.6991 332.018 64.8992 328.475 61.3384 324.7C61.6136 324.48 69.2282 318.37 71.2098 314.425C72.9346 310.994 74.1639 306.15 72.3658 302.498C71.9685 301.634 71.3944 300.862 70.6806 300.233C69.9667 299.604 69.1289 299.132 68.2213 298.847C67.3136 298.561 66.3562 298.469 65.4109 298.577C64.4655 298.685 63.5533 298.989 62.7329 299.471C57.8522 302.535 57.3751 312.902 58.6228 317.819C58.7145 318.15 60.1457 321.966 60.8797 323.746L60.6044 323.929C57.1188 320.032 53.9872 315.832 51.2467 311.379C49.7238 308.957 48.3844 306.535 47.1367 304.168C48.6779 303.177 55.632 298.663 57.8155 295.214C59.9989 291.764 61.6686 287.306 60.2742 283.489C59.9757 282.593 59.4938 281.768 58.8592 281.068C58.2246 280.368 57.4512 279.808 56.5883 279.423C55.7253 279.038 54.7916 278.837 53.8467 278.833C52.9018 278.828 51.9664 279.021 51.0999 279.398C45.9257 281.893 44.2927 292.242 45.0083 297.232C45.0083 297.508 45.7422 300.278 46.2926 302.278C45.7422 301.214 45.155 300.095 44.6596 299.049C42.8248 295.141 41.2652 291.434 39.9808 288.15C39.2652 286.315 38.6413 284.48 38.1459 282.939C39.1368 281.196 43.0817 274.058 43.4486 270.095C43.8156 266.132 43.2285 261.306 40.2377 258.554C39.5551 257.883 38.7391 257.364 37.8428 257.029C36.9464 256.694 35.9896 256.551 35.0346 256.61C34.0795 256.669 33.1475 256.928 32.299 257.37C31.4505 257.813 30.7044 258.428 30.1093 259.178C26.6782 263.783 29.9625 273.636 32.935 277.82C33.1919 278.187 37.8524 283.324 37.9074 283.324V283.214C38.4212 284.774 38.9716 286.425 39.6322 288.242C40.8615 291.563 42.2743 295.306 44.0908 299.251C45.9969 303.557 48.1534 307.747 50.5495 311.801C53.2213 316.345 56.2915 320.644 59.7237 324.645L59.8521 324.773C58.421 323.893 54.3476 321.562 53.999 321.416C49.2834 319.379 38.9533 318.241 35.1735 322.572C34.566 323.31 34.1208 324.167 33.8668 325.089C33.6129 326.011 33.5559 326.975 33.6995 327.92C33.8432 328.866 34.1843 329.77 34.7007 330.574C35.217 331.379 35.897 332.066 36.6964 332.59C39.9991 334.938 44.9899 334.425 48.6413 333.324C52.7696 332.021 59.6503 325.727 60.2925 325.232C63.8815 329.22 67.7308 332.965 71.8153 336.443C74.1823 338.48 76.6226 340.461 79.1547 342.425C77.8887 341.709 76.7511 341.067 76.5859 340.993C71.8704 338.957 61.5585 337.819 57.7788 342.149C57.1676 342.885 56.7188 343.742 56.4618 344.663C56.2049 345.584 56.1454 346.55 56.2875 347.495C56.4295 348.441 56.7699 349.346 57.2861 350.152C57.8024 350.957 58.483 351.644 59.2833 352.168C62.6044 354.516 67.5768 354.002 71.2465 352.901C74.9162 351.801 80.9896 346.48 82.5859 345.067L85.4482 347.305C90.072 350.846 94.6224 354.351 99.1178 357.929C100.677 359.195 102.164 360.479 103.668 361.782C102.549 361.14 101.595 360.608 101.43 360.534C96.7142 358.516 86.4023 357.36 82.6226 361.709C82.0114 362.445 81.5626 363.301 81.3056 364.222C81.0486 365.144 80.9892 366.109 81.1313 367.055C81.2733 368.001 81.6137 368.906 82.1299 369.711C82.6462 370.516 83.3268 371.203 84.1271 371.727C87.4482 374.076 92.4206 373.562 96.0903 372.443C99.76 371.323 105.265 366.534 107.099 364.883C108.586 366.241 110.09 367.617 111.485 369.011C112.402 369.984 113.32 370.846 114.237 371.892L116.861 374.883C118.475 376.828 120.127 378.828 121.65 380.773C122.714 382.131 123.705 383.433 124.714 384.736C123.173 383.47 120.108 381.066 119.815 380.865C115.466 378.131 105.448 375.452 101.044 379.158C100.334 379.797 99.7653 380.577 99.3762 381.45C98.9872 382.322 98.7861 383.267 98.7861 384.222C98.7861 385.178 98.9872 386.122 99.3762 386.995C99.7653 387.867 100.334 388.648 101.044 389.286C103.962 392.112 108.953 392.406 112.751 391.819C116.916 391.176 124.475 386.314 125.411 385.635C127.062 387.8 128.64 389.929 130.108 391.947C135.191 398.974 139.154 405.029 141.87 409.286L142.145 409.727L145.668 408.02L145.117 407.176C142.273 402.938 138.145 396.919 132.842 389.929C131.191 387.708 129.356 385.397 127.466 383.011C129.429 380.868 131.267 378.614 132.971 376.259C137.007 377.837 145.429 377.892 146.512 377.892C146.695 380.626 146.842 383.268 146.934 385.764C147.301 394.442 147.264 401.672 147.191 406.718C147.191 406.919 147.191 407.103 147.191 407.305L151.062 405.47C151.062 400.442 150.86 393.653 150.365 385.617C150.182 382.865 149.943 379.91 149.686 376.883C150.75 376.626 159.503 374.369 162.805 371.727C165.814 369.342 168.97 365.452 168.86 361.397C168.868 360.441 168.674 359.495 168.291 358.619C167.908 357.743 167.346 356.958 166.64 356.314C165.933 355.67 165.1 355.182 164.192 354.882C163.285 354.582 162.325 354.476 161.374 354.571C155.649 355.305 150.879 364.498 149.943 369.562C149.943 369.855 149.631 373.232 149.521 375.232C149.411 374.002 149.301 372.81 149.172 371.562C148.915 369.048 148.585 366.553 148.255 363.856C148.035 362.571 147.815 361.25 147.613 359.929C147.411 358.608 147.062 357.25 146.787 355.911C146.09 352.773 145.246 349.635 144.31 346.498C146.512 346.278 154.328 345.36 157.668 343.434C161.007 341.507 164.695 338.168 165.209 334.131C165.359 333.188 165.31 332.224 165.064 331.302C164.817 330.379 164.38 329.519 163.779 328.777C163.179 328.034 162.429 327.427 161.578 326.993C160.728 326.559 159.795 326.309 158.842 326.26C153.081 326.113 146.952 334.48 145.264 339.342C145.154 339.636 144.328 343.25 143.925 345.25C143.338 343.415 142.787 341.489 142.09 339.599C140.255 334.094 138.182 328.718 136.163 323.269L134.328 318.26C135.117 318.26 144.42 317.306 148.163 315.14C151.484 313.306 155.191 309.874 155.704 305.838C155.858 304.895 155.811 303.929 155.566 303.006C155.32 302.082 154.883 301.221 154.282 300.478C153.681 299.734 152.93 299.127 152.078 298.694C151.226 298.261 150.292 298.013 149.337 297.966C143.576 297.819 137.448 306.205 135.76 311.049C135.631 311.416 134.457 316.553 134.218 317.966C132.897 314.296 131.613 310.627 130.549 306.957C129.016 301.997 127.791 296.948 126.879 291.838C127.246 291.838 136.971 290.92 140.805 288.719C144.127 286.792 147.833 283.434 148.347 279.398C148.497 278.453 148.447 277.488 148.2 276.564C147.953 275.641 147.513 274.779 146.911 274.037C146.309 273.294 145.557 272.687 144.704 272.254C143.851 271.822 142.916 271.574 141.961 271.526C136.218 271.379 130.09 279.765 128.402 284.609C128.292 284.921 127.393 288.902 127.007 290.792H126.677C125.919 285.624 125.625 280.398 125.796 275.177C125.796 272.315 126.072 269.563 126.347 266.902C128.182 266.902 136.53 266.902 140.2 265.324C143.87 263.746 147.76 260.847 148.714 256.902C148.968 255.978 149.025 255.011 148.879 254.063C148.734 253.116 148.39 252.21 147.871 251.405C147.351 250.599 146.667 249.912 145.864 249.39C145.061 248.867 144.156 248.519 143.209 248.37C137.503 247.6 130.494 255.251 128.292 259.875C128.163 260.132 127.228 262.829 126.567 264.811C126.696 263.6 126.824 262.37 126.989 261.141C127.576 256.829 128.365 252.921 129.099 249.453C129.54 247.49 129.962 245.783 130.384 244.077C132.218 243.159 139.411 239.398 141.888 236.334C144.365 233.27 146.53 228.884 145.558 224.939C145.356 223.99 144.953 223.094 144.376 222.313C143.799 221.532 143.062 220.884 142.214 220.411C141.366 219.938 140.426 219.653 139.459 219.573C138.491 219.493 137.518 219.621 136.604 219.949Z" fill="#FD6F00"/>
<path d="M32.6056 308.645C37.101 308.462 46.0917 303.838 46.11 303.838C46.1284 303.838 41.2661 298.847 40.9174 298.554C36.8991 295.361 27.2478 291.526 22.4589 294.719C21.6784 295.269 21.0225 295.978 20.5337 296.798C20.0448 297.618 19.7341 298.532 19.6216 299.481C19.5091 300.429 19.5974 301.39 19.8808 302.302C20.1641 303.214 20.6362 304.056 21.2663 304.774C23.8534 307.911 28.8258 308.792 32.6056 308.645Z" fill="#FD6F00"/>
<g opacity="0.5">
<path d="M125.467 266.04C125.577 266.04 124.201 259.196 124.054 258.701C122.477 253.82 116.55 245.306 110.789 245.306C109.833 245.336 108.894 245.566 108.033 245.982C107.172 246.398 106.408 246.99 105.79 247.72C105.173 248.45 104.715 249.302 104.448 250.22C104.181 251.138 104.109 252.102 104.238 253.049C104.66 257.086 108.293 260.535 111.578 262.517C115.431 264.921 125.467 266.04 125.467 266.04Z" fill="white"/>
<path d="M136.604 219.949C131.191 221.894 128.512 231.912 128.677 237.049C128.677 237.49 129.705 244.389 129.815 244.389H129.925C129.484 245.967 129.026 247.655 128.567 249.526C127.76 252.976 126.879 256.866 126.2 261.196C125.413 265.835 124.898 270.515 124.659 275.214C124.375 280.48 124.553 285.76 125.191 290.994C125.198 291.055 125.198 291.116 125.191 291.177C124.494 289.654 122.365 285.453 122.163 285.141C119.338 280.847 111.375 274.132 105.815 275.728C104.904 276.009 104.062 276.478 103.344 277.105C102.625 277.732 102.047 278.503 101.645 279.368C101.244 280.233 101.029 281.172 101.014 282.126C100.999 283.079 101.184 284.025 101.558 284.902C103.026 288.7 107.43 291.049 111.118 292.113C115.283 293.287 124.567 291.893 125.301 291.783C126.097 297.087 127.237 302.333 128.714 307.489C129.576 310.498 130.549 313.507 131.503 316.498C130.861 315.195 130.255 314.039 130.163 313.893C127.338 309.599 119.374 302.884 113.815 304.48C112.904 304.761 112.062 305.23 111.343 305.857C110.625 306.484 110.047 307.255 109.645 308.12C109.244 308.985 109.029 309.924 109.014 310.878C108.999 311.831 109.184 312.777 109.558 313.654C111.026 317.434 115.43 319.801 119.118 320.847C122.806 321.893 130.806 320.847 132.897 320.59C133.283 321.728 133.668 322.883 134.072 324.021C135.906 329.526 137.888 335.03 139.576 340.425C140.182 342.259 140.695 344.241 141.227 346.149C140.659 344.993 140.145 344.021 140.053 343.892C137.246 339.581 129.264 332.883 123.723 334.48C122.81 334.759 121.966 335.226 121.246 335.853C120.526 336.479 119.945 337.249 119.542 338.115C119.139 338.98 118.922 339.92 118.906 340.874C118.89 341.829 119.074 342.776 119.448 343.654C120.916 347.434 125.338 349.801 129.026 350.846C132.714 351.892 139.925 350.975 142.42 350.626C142.916 352.59 143.411 354.571 143.796 356.498C144.016 357.819 144.328 359.067 144.493 360.424L145.044 364.351C145.301 366.865 145.594 369.452 145.778 371.911C145.925 373.635 146.035 375.268 146.145 376.901C145.576 375.066 144.31 371.268 144.31 370.975C142.279 366.937 139.246 363.488 135.503 360.956C135.294 360.497 135.049 360.055 134.769 359.635C134.246 358.836 133.56 358.154 132.757 357.636C131.954 357.118 131.051 356.774 130.107 356.627C129.162 356.48 128.197 356.533 127.275 356.783C126.352 357.032 125.492 357.473 124.751 358.076C120.402 361.837 121.485 372.149 123.485 376.883C123.595 377.158 125.319 380.057 126.273 381.855L123.943 378.956C122.329 376.993 120.677 375.085 118.916 373.03C118.011 372.076 117.112 371.103 116.219 370.112C115.338 369.122 114.292 368.186 113.32 367.195C111.008 364.975 108.567 362.828 105.98 360.736C107.705 359.323 113.705 354.259 115.43 350.81C117.154 347.36 118.384 342.535 116.586 338.883C116.19 338.015 115.617 337.239 114.902 336.606C114.188 335.974 113.348 335.498 112.438 335.211C111.528 334.924 110.568 334.831 109.62 334.939C108.671 335.047 107.756 335.353 106.934 335.837C102.054 338.883 101.558 349.25 102.824 354.186C102.824 354.498 104.219 357.984 104.971 359.874C103.448 358.608 101.943 357.36 100.365 356.204C95.8151 352.7 91.1913 349.287 86.4207 345.856L82.1455 342.681C82.751 342.186 90.017 336.315 91.9619 332.443C93.6867 329.012 94.916 324.168 93.1179 320.535C92.7247 319.662 92.1518 318.882 91.4367 318.246C90.7216 317.609 89.8803 317.131 88.9678 316.842C88.0553 316.553 87.092 316.459 86.141 316.568C85.1899 316.676 84.2723 316.984 83.4482 317.471C78.5859 320.535 78.0905 330.883 79.3565 335.819C79.4483 336.186 81.3382 341.177 81.8886 342.425C78.751 340.094 75.6501 337.746 72.7144 335.305C68.6991 332.018 64.8992 328.475 61.3384 324.7C61.6136 324.48 69.2282 318.37 71.2098 314.425C72.9346 310.994 74.1639 306.15 72.3658 302.498C71.9685 301.634 71.3944 300.862 70.6806 300.233C69.9667 299.604 69.1289 299.132 68.2213 298.847C67.3136 298.561 66.3562 298.469 65.4109 298.577C64.4655 298.685 63.5533 298.989 62.7329 299.471C57.8522 302.535 57.3751 312.902 58.6228 317.819C58.7145 318.15 60.1457 321.966 60.8797 323.746L60.6044 323.929C57.1188 320.032 53.9872 315.832 51.2467 311.379C49.7238 308.957 48.3844 306.535 47.1367 304.168C48.6779 303.177 55.632 298.663 57.8155 295.214C59.9989 291.764 61.6686 287.306 60.2742 283.489C59.9757 282.593 59.4938 281.768 58.8592 281.068C58.2246 280.368 57.4512 279.808 56.5883 279.423C55.7253 279.038 54.7916 278.837 53.8467 278.833C52.9018 278.828 51.9664 279.021 51.0999 279.398C45.9257 281.893 44.2927 292.242 45.0083 297.232C45.0083 297.508 45.7422 300.278 46.2926 302.278C45.7422 301.214 45.155 300.095 44.6596 299.049C42.8248 295.141 41.2652 291.434 39.9808 288.15C39.2652 286.315 38.6413 284.48 38.1459 282.939C39.1368 281.196 43.0817 274.058 43.4486 270.095C43.8156 266.132 43.2285 261.306 40.2377 258.554C39.5551 257.883 38.7391 257.364 37.8428 257.029C36.9464 256.694 35.9896 256.551 35.0346 256.61C34.0795 256.669 33.1475 256.928 32.299 257.37C31.4505 257.813 30.7044 258.428 30.1093 259.178C26.6782 263.783 29.9625 273.636 32.935 277.82C33.1919 278.187 37.8524 283.324 37.9074 283.324V283.214C38.4212 284.774 38.9716 286.425 39.6322 288.242C40.8615 291.563 42.2743 295.306 44.0908 299.251C45.9969 303.557 48.1534 307.747 50.5495 311.801C53.2213 316.345 56.2915 320.644 59.7237 324.645L59.8521 324.773C58.421 323.893 54.3476 321.562 53.999 321.416C49.2834 319.379 38.9533 318.241 35.1735 322.572C34.566 323.31 34.1208 324.167 33.8668 325.089C33.6129 326.011 33.5559 326.975 33.6995 327.92C33.8432 328.866 34.1843 329.77 34.7007 330.574C35.217 331.379 35.897 332.066 36.6964 332.59C39.9991 334.938 44.9899 334.425 48.6413 333.324C52.7696 332.021 59.6503 325.727 60.2925 325.232C63.8815 329.22 67.7308 332.965 71.8153 336.443C74.1823 338.48 76.6226 340.461 79.1547 342.425C77.8887 341.709 76.7511 341.067 76.5859 340.993C71.8704 338.957 61.5585 337.819 57.7788 342.149C57.1676 342.885 56.7188 343.742 56.4618 344.663C56.2049 345.584 56.1454 346.55 56.2875 347.495C56.4295 348.441 56.7699 349.346 57.2861 350.152C57.8024 350.957 58.483 351.644 59.2833 352.168C62.6044 354.516 67.5768 354.002 71.2465 352.901C74.9162 351.801 80.9896 346.48 82.5859 345.067L85.4482 347.305C90.072 350.846 94.6224 354.351 99.1178 357.929C100.677 359.195 102.164 360.479 103.668 361.782C102.549 361.14 101.595 360.608 101.43 360.534C96.7142 358.516 86.4023 357.36 82.6226 361.709C82.0114 362.445 81.5626 363.301 81.3056 364.222C81.0486 365.144 80.9892 366.109 81.1313 367.055C81.2733 368.001 81.6137 368.906 82.1299 369.711C82.6462 370.516 83.3268 371.203 84.1271 371.727C87.4482 374.076 92.4206 373.562 96.0903 372.443C99.76 371.323 105.265 366.534 107.099 364.883C108.586 366.241 110.09 367.617 111.485 369.011C112.402 369.984 113.32 370.846 114.237 371.892L116.861 374.883C118.475 376.828 120.127 378.828 121.65 380.773C122.714 382.131 123.705 383.433 124.714 384.736C123.173 383.47 120.108 381.066 119.815 380.865C115.466 378.131 105.448 375.452 101.044 379.158C100.334 379.797 99.7653 380.577 99.3762 381.45C98.9872 382.322 98.7861 383.267 98.7861 384.222C98.7861 385.178 98.9872 386.122 99.3762 386.995C99.7653 387.867 100.334 388.648 101.044 389.286C103.962 392.112 108.953 392.406 112.751 391.819C116.916 391.176 124.475 386.314 125.411 385.635C127.062 387.8 128.64 389.929 130.108 391.947C135.191 398.974 139.154 405.029 141.87 409.286L142.145 409.727L145.668 408.02L145.117 407.176C142.273 402.938 138.145 396.919 132.842 389.929C131.191 387.708 129.356 385.397 127.466 383.011C129.429 380.868 131.267 378.614 132.971 376.259C137.007 377.837 145.429 377.892 146.512 377.892C146.695 380.626 146.842 383.268 146.934 385.764C147.301 394.442 147.264 401.672 147.191 406.718C147.191 406.919 147.191 407.103 147.191 407.305L151.062 405.47C151.062 400.442 150.86 393.653 150.365 385.617C150.182 382.865 149.943 379.91 149.686 376.883C150.75 376.626 159.503 374.369 162.805 371.727C165.814 369.342 168.97 365.452 168.86 361.397C168.868 360.441 168.674 359.495 168.291 358.619C167.908 357.743 167.346 356.958 166.64 356.314C165.933 355.67 165.1 355.182 164.192 354.882C163.285 354.582 162.325 354.476 161.374 354.571C155.649 355.305 150.879 364.498 149.943 369.562C149.943 369.855 149.631 373.232 149.521 375.232C149.411 374.002 149.301 372.81 149.172 371.562C148.915 369.048 148.585 366.553 148.255 363.856C148.035 362.571 147.815 361.25 147.613 359.929C147.411 358.608 147.062 357.25 146.787 355.911C146.09 352.773 145.246 349.635 144.31 346.498C146.512 346.278 154.328 345.36 157.668 343.434C161.007 341.507 164.695 338.168 165.209 334.131C165.359 333.188 165.31 332.224 165.064 331.302C164.817 330.379 164.38 329.519 163.779 328.777C163.179 328.034 162.429 327.427 161.578 326.993C160.728 326.559 159.795 326.309 158.842 326.26C153.081 326.113 146.952 334.48 145.264 339.342C145.154 339.636 144.328 343.25 143.925 345.25C143.338 343.415 142.787 341.489 142.09 339.599C140.255 334.094 138.182 328.718 136.163 323.269L134.328 318.26C135.117 318.26 144.42 317.306 148.163 315.14C151.484 313.306 155.191 309.874 155.704 305.838C155.858 304.895 155.811 303.929 155.566 303.006C155.32 302.082 154.883 301.221 154.282 300.478C153.681 299.734 152.93 299.127 152.078 298.694C151.226 298.261 150.292 298.013 149.337 297.966C143.576 297.819 137.448 306.205 135.76 311.049C135.631 311.416 134.457 316.553 134.218 317.966C132.897 314.296 131.613 310.627 130.549 306.957C129.016 301.997 127.791 296.948 126.879 291.838C127.246 291.838 136.971 290.92 140.805 288.719C144.127 286.792 147.833 283.434 148.347 279.398C148.497 278.453 148.447 277.488 148.2 276.564C147.953 275.641 147.513 274.779 146.911 274.037C146.309 273.294 145.557 272.687 144.704 272.254C143.851 271.822 142.916 271.574 141.961 271.526C136.218 271.379 130.09 279.765 128.402 284.609C128.292 284.921 127.393 288.902 127.007 290.792H126.677C125.919 285.624 125.625 280.398 125.796 275.177C125.796 272.315 126.072 269.563 126.347 266.902C128.182 266.902 136.53 266.902 140.2 265.324C143.87 263.746 147.76 260.847 148.714 256.902C148.968 255.978 149.025 255.011 148.879 254.063C148.734 253.116 148.39 252.21 147.871 251.405C147.351 250.599 146.667 249.912 145.864 249.39C145.061 248.867 144.156 248.519 143.209 248.37C137.503 247.6 130.494 255.251 128.292 259.875C128.163 260.132 127.228 262.829 126.567 264.811C126.696 263.6 126.824 262.37 126.989 261.141C127.576 256.829 128.365 252.921 129.099 249.453C129.54 247.49 129.962 245.783 130.384 244.077C132.218 243.159 139.411 239.398 141.888 236.334C144.365 233.27 146.53 228.884 145.558 224.939C145.356 223.99 144.953 223.094 144.376 222.313C143.799 221.532 143.062 220.884 142.214 220.411C141.366 219.938 140.426 219.653 139.459 219.573C138.491 219.493 137.518 219.621 136.604 219.949Z" fill="white"/>
<path d="M32.6056 308.645C37.101 308.461 46.0917 303.838 46.11 303.838C46.1284 303.838 41.2661 298.847 40.9174 298.553C36.8991 295.361 27.2478 291.526 22.4589 294.718C21.6784 295.269 21.0225 295.977 20.5337 296.797C20.0448 297.618 19.7341 298.532 19.6216 299.48C19.5091 300.428 19.5974 301.39 19.8808 302.302C20.1641 303.214 20.6362 304.056 21.2663 304.773C23.8534 307.911 28.8258 308.792 32.6056 308.645Z" fill="white"/>
</g>
<path d="M85.1001 421.212C85.1001 421.212 112.384 355.452 127.65 358.314C142.916 361.176 101.467 463.157 101.467 463.157C101.467 463.157 149.466 372.607 182.2 372.607C214.934 372.607 170.2 472.68 128.751 506.037C128.751 506.037 194.2 435.506 232.401 450.772C270.603 466.038 156.017 537.505 156.017 537.505C156.017 537.505 222.567 516.533 214.934 532.734C207.301 548.936 186.622 551.798 186.622 551.798L261.851 555.615H0L58.9168 549.89C58.9168 549.89 -2.18347 519.395 14.1466 506.991C30.4768 494.588 66.5131 521.285 66.5131 521.285C66.5131 521.285 4.33023 452.662 16.3301 426.937C28.33 401.213 81.7974 473.634 81.7974 473.634C81.7974 473.634 38.1464 381.194 46.9353 364.974C55.7242 348.754 85.1001 421.212 85.1001 421.212Z" fill="#FD6F00"/>
<path opacity="0.4" d="M85.1001 421.212C85.1001 421.212 112.384 355.452 127.65 358.314C142.916 361.176 101.467 463.157 101.467 463.157C101.467 463.157 149.466 372.607 182.2 372.607C214.934 372.607 170.2 472.68 128.751 506.037C128.751 506.037 194.2 435.506 232.401 450.772C270.603 466.038 156.017 537.505 156.017 537.505C156.017 537.505 222.567 516.533 214.934 532.734C207.301 548.936 186.622 551.798 186.622 551.798L261.851 555.615H0L58.9168 549.89C58.9168 549.89 -2.18347 519.395 14.1466 506.991C30.4768 494.588 66.5131 521.285 66.5131 521.285C66.5131 521.285 4.33023 452.662 16.3301 426.937C28.33 401.213 81.7974 473.634 81.7974 473.634C81.7974 473.634 38.1464 381.194 46.9353 364.974C55.7242 348.754 85.1001 421.212 85.1001 421.212Z" fill="white"/>
<path d="M76.3853 424.681C100.385 495.597 100.385 545.78 100.385 545.78C100.385 545.78 72.0184 546.881 42.5508 525.065" stroke="#263238" stroke-width="0.607119" stroke-linecap="round" stroke-linejoin="round"/>
<path d="M88.3848 462.864C93.3244 441.663 99.8881 420.874 108.018 400.681" stroke="#263238" stroke-width="0.607119" stroke-linecap="round" stroke-linejoin="round"/>
<path d="M159.302 421.415L98.2016 511.964C98.2016 511.964 56.7341 477.102 42.5508 457.414" stroke="#263238" stroke-width="0.607119" stroke-linecap="round" stroke-linejoin="round"/>
<path d="M99.2832 533.78C99.2832 533.78 163.65 503.23 189.851 485.781" stroke="#263238" stroke-width="0.607119" stroke-linecap="round" stroke-linejoin="round"/>
<path d="M635.461 266.04C635.351 266.04 636.746 259.196 636.874 258.701C638.452 253.82 644.397 245.306 650.14 245.306C651.096 245.336 652.035 245.566 652.896 245.982C653.757 246.398 654.521 246.99 655.138 247.72C655.756 248.45 656.213 249.302 656.48 250.22C656.748 251.138 656.819 252.102 656.69 253.049C656.268 257.086 652.635 260.535 649.351 262.517C645.498 264.921 635.461 266.04 635.461 266.04Z" fill="#FD6F00"/>
<path d="M624.325 219.949C629.737 221.893 632.435 231.912 632.251 237.049C632.251 237.49 631.224 244.389 631.132 244.389H631.022C631.444 245.967 631.903 247.655 632.361 249.526C633.169 252.976 634.049 256.866 634.728 261.196C635.515 265.834 636.03 270.515 636.27 275.214C636.562 280.479 636.384 285.76 635.737 290.994C635.73 291.055 635.73 291.116 635.737 291.177C636.453 289.654 638.581 285.452 638.765 285.141C641.591 280.847 649.554 274.131 655.113 275.728C656.026 276.006 656.87 276.474 657.59 277.1C658.31 277.727 658.89 278.498 659.291 279.364C659.693 280.23 659.908 281.17 659.921 282.125C659.935 283.079 659.747 284.025 659.37 284.902C657.902 288.7 653.499 291.049 649.811 292.113C645.646 293.287 636.361 291.893 635.627 291.783C634.841 297.088 633.701 302.335 632.215 307.489C631.358 310.498 630.429 313.501 629.426 316.498C630.068 315.195 630.673 314.039 630.765 313.893C633.591 309.599 641.572 302.883 647.113 304.48C648.026 304.758 648.87 305.226 649.59 305.852C650.31 306.479 650.89 307.25 651.291 308.116C651.693 308.982 651.908 309.922 651.921 310.877C651.935 311.831 651.747 312.777 651.37 313.654C649.902 317.434 645.499 319.801 641.811 320.847C638.123 321.892 630.123 320.847 628.031 320.59L626.875 324.021C625.04 329.525 623.04 335.03 621.371 340.424C620.765 342.259 620.233 344.241 619.701 346.149C620.288 344.993 620.783 344.021 620.875 343.892C623.701 339.58 631.664 332.883 637.205 334.479C638.118 334.758 638.962 335.226 639.682 335.852C640.403 336.479 640.983 337.249 641.386 338.114C641.79 338.979 642.006 339.92 642.022 340.874C642.039 341.828 641.854 342.775 641.48 343.654C640.013 347.434 635.591 349.8 631.903 350.846C628.215 351.892 621.004 350.975 618.508 350.626C618.013 352.589 617.536 354.571 617.15 356.498C616.912 357.819 616.6 359.066 616.435 360.424L615.884 364.351C615.628 366.865 615.334 369.452 615.15 371.91C615.004 373.635 614.894 375.268 614.784 376.901C615.371 375.066 616.618 371.268 616.71 370.975C618.747 366.941 621.779 363.494 625.517 360.956C625.725 360.493 625.977 360.05 626.27 359.635C626.789 358.834 627.472 358.151 628.273 357.631C629.075 357.111 629.977 356.766 630.921 356.619C631.865 356.472 632.829 356.526 633.751 356.777C634.672 357.028 635.531 357.47 636.27 358.076C640.636 361.837 639.536 372.149 637.536 376.883C637.425 377.158 635.792 380.057 634.747 381.855C635.536 380.883 636.27 380.02 637.095 378.956C638.692 376.993 640.343 375.085 642.104 373.03L644.802 370.112C645.682 369.121 646.746 368.186 647.719 367.195C650.012 364.975 652.453 362.828 654.967 360.736C653.26 359.323 647.242 354.259 645.517 350.81C643.792 347.36 642.563 342.535 644.361 338.883C644.756 338.012 645.33 337.234 646.046 336.599C646.762 335.965 647.604 335.488 648.516 335.201C649.428 334.914 650.391 334.822 651.341 334.931C652.291 335.041 653.208 335.35 654.031 335.837C658.893 338.883 659.389 349.25 658.123 354.186C658.123 354.498 656.728 357.984 655.976 359.874C657.499 358.608 659.003 357.36 660.581 356.204C665.132 352.7 669.847 349.287 674.526 345.856L678.801 342.681C678.196 342.186 670.93 336.314 668.985 332.443C667.278 329.012 666.031 324.168 667.829 320.535C668.222 319.662 668.795 318.882 669.51 318.246C670.225 317.609 671.066 317.131 671.979 316.842C672.891 316.553 673.855 316.459 674.806 316.567C675.757 316.676 676.674 316.984 677.498 317.471C682.379 320.535 682.856 330.883 681.59 335.819C681.498 336.186 679.609 341.177 679.076 342.424C682.196 340.094 685.297 337.746 688.251 335.305C692.266 332.017 696.066 328.475 699.627 324.7C699.351 324.48 691.737 318.37 689.755 314.425C688.03 310.993 686.801 306.15 688.599 302.498C688.993 301.628 689.565 300.85 690.279 300.216C690.992 299.581 691.832 299.104 692.742 298.815C693.652 298.526 694.613 298.432 695.562 298.538C696.511 298.645 697.427 298.95 698.251 299.434C703.131 302.498 703.627 312.865 702.361 317.782C702.269 318.113 700.838 321.929 700.122 323.709C700.206 323.781 700.299 323.842 700.397 323.892C703.878 319.995 707.003 315.795 709.737 311.342C711.278 308.92 712.599 306.498 713.847 304.131C712.305 303.14 705.351 298.627 703.168 295.177C700.984 291.728 699.333 287.269 700.709 283.453C701.006 282.544 701.491 281.709 702.132 281C702.773 280.292 703.556 279.726 704.43 279.34C705.304 278.954 706.249 278.757 707.205 278.76C708.16 278.764 709.104 278.968 709.975 279.361C715.168 281.856 716.782 292.205 716.067 297.195C716.067 297.471 715.333 300.241 714.801 302.241C715.333 301.177 715.92 300.058 716.416 299.012C718.25 295.104 719.81 291.397 721.094 288.113C721.828 286.278 722.434 284.443 722.929 282.902C721.92 281.159 717.994 274.021 717.608 270.058C717.223 266.095 717.847 261.269 720.837 258.517C721.518 257.847 722.333 257.327 723.228 256.993C724.123 256.658 725.078 256.516 726.032 256.574C726.985 256.633 727.916 256.892 728.763 257.334C729.61 257.777 730.354 258.392 730.948 259.141C734.397 263.746 731.113 273.599 728.14 277.783C727.883 278.15 723.204 283.287 723.149 283.287V283.177C722.636 284.737 722.085 286.388 721.425 288.205C720.214 291.526 718.801 295.269 716.984 299.214C715.064 303.516 712.902 307.707 710.507 311.764C707.835 316.309 704.765 320.607 701.333 324.608L701.205 324.736C702.636 323.856 706.709 321.526 707.058 321.379C711.792 319.342 722.104 318.204 725.883 322.535C726.492 323.272 726.938 324.128 727.193 325.049C727.449 325.97 727.507 326.934 727.366 327.879C727.224 328.824 726.884 329.729 726.37 330.534C725.855 331.339 725.177 332.027 724.379 332.553C721.058 334.902 716.085 334.388 712.416 333.287C708.287 331.984 701.407 325.691 700.783 325.195C697.194 329.183 693.344 332.928 689.26 336.406C686.893 338.443 684.434 340.424 681.92 342.388C683.187 341.672 684.324 341.03 684.489 340.956C689.205 338.92 699.517 337.782 703.296 342.112C703.908 342.848 704.356 343.705 704.613 344.626C704.87 345.547 704.93 346.513 704.788 347.459C704.646 348.404 704.305 349.31 703.789 350.115C703.273 350.92 702.592 351.607 701.792 352.131C698.489 354.479 693.498 353.966 689.847 352.865C686.196 351.764 680.086 346.443 678.508 345.03C677.535 345.782 676.673 346.534 675.627 347.268C671.021 350.81 666.453 354.314 661.957 357.892C660.398 359.158 658.911 360.443 657.407 361.745L659.645 360.498C664.361 358.479 674.673 357.323 678.453 361.672C679.064 362.408 679.513 363.264 679.77 364.186C680.027 365.107 680.086 366.072 679.944 367.018C679.802 367.964 679.462 368.869 678.945 369.674C678.429 370.479 677.748 371.166 676.948 371.69C673.627 374.039 668.655 373.525 665.003 372.406C661.352 371.286 655.829 366.498 653.994 364.846C652.508 366.204 651.003 367.58 649.627 368.975C648.691 369.947 647.792 370.809 646.875 371.855L644.233 374.846C642.636 376.791 640.967 378.791 639.444 380.736C638.38 382.094 637.389 383.396 636.398 384.699C637.921 383.433 641.003 381.03 641.279 380.828C645.627 378.094 655.664 375.415 660.049 379.121C660.76 379.76 661.328 380.54 661.717 381.413C662.106 382.285 662.307 383.23 662.307 384.185C662.307 385.141 662.106 386.085 661.717 386.958C661.328 387.83 660.76 388.611 660.049 389.25C657.113 392.075 652.123 392.369 648.343 391.782C644.159 391.14 636.6 386.277 635.664 385.598C634.013 387.763 632.435 389.892 630.967 391.91C625.884 398.938 621.921 404.993 619.206 409.249C619.206 409.415 619.022 409.543 618.93 409.69L615.407 407.983L615.958 407.139C618.802 402.901 622.949 396.883 628.233 389.892C629.903 387.672 631.719 385.36 633.609 382.974C631.642 380.835 629.804 378.58 628.104 376.222C624.049 377.8 615.646 377.855 614.545 377.855C614.38 380.589 614.233 383.231 614.123 385.727C613.756 394.406 613.793 401.635 613.884 406.681V407.268L610.013 405.433C610.013 400.405 610.215 393.617 610.729 385.58C610.894 382.828 611.132 379.874 611.407 376.846C610.325 376.589 601.573 374.332 598.27 371.69C595.279 369.305 592.123 365.415 592.233 361.36C592.223 360.404 592.415 359.456 592.797 358.579C593.178 357.702 593.741 356.915 594.448 356.271C595.155 355.626 595.99 355.138 596.898 354.839C597.807 354.54 598.768 354.436 599.719 354.534C605.426 355.268 610.215 364.461 611.151 369.525C611.151 369.819 611.444 373.195 611.554 375.195C611.683 373.965 611.774 372.773 611.921 371.525C612.16 369.011 612.49 366.516 612.839 363.819C613.04 362.534 613.261 361.213 613.462 359.892C613.664 358.571 614.013 357.213 614.288 355.874C614.985 352.736 615.829 349.599 616.765 346.461C614.563 346.241 606.765 345.323 603.407 343.397C600.05 341.47 596.38 338.131 595.885 334.094C595.731 333.151 595.778 332.186 596.024 331.262C596.269 330.339 596.706 329.477 597.307 328.734C597.908 327.991 598.659 327.383 599.511 326.95C600.363 326.518 601.297 326.27 602.252 326.223C607.995 326.076 614.123 334.443 615.811 339.305C615.921 339.599 616.747 343.213 617.15 345.213C617.738 343.379 618.288 341.452 618.985 339.562C620.82 334.058 622.894 328.681 624.912 323.232C625.536 321.562 626.123 319.893 626.747 318.223C625.958 318.223 616.655 317.269 612.912 315.104C609.591 313.269 605.885 309.838 605.371 305.801C605.22 304.858 605.27 303.894 605.516 302.972C605.762 302.049 606.2 301.189 606.8 300.446C607.401 299.704 608.151 299.096 609.001 298.663C609.852 298.229 610.784 297.979 611.738 297.929C617.499 297.783 623.627 306.168 625.316 311.012C625.444 311.379 626.618 316.516 626.857 317.929C628.178 314.26 629.481 310.59 630.526 306.92C632.076 301.965 633.302 296.915 634.196 291.801C633.829 291.801 624.123 290.884 620.288 288.682C616.949 286.755 613.242 283.397 612.747 279.361C612.593 278.418 612.641 277.453 612.886 276.529C613.131 275.605 613.568 274.744 614.169 274.001C614.77 273.258 615.521 272.65 616.373 272.217C617.225 271.784 618.159 271.536 619.114 271.489C624.857 271.343 630.985 279.728 632.673 284.572C632.783 284.884 633.701 288.865 634.086 290.755H634.398C635.156 285.587 635.451 280.361 635.279 275.141C635.279 272.278 635.003 269.526 634.728 266.866C632.893 266.866 624.563 266.866 620.894 265.288C617.224 263.71 613.316 260.811 612.362 256.866C612.107 255.942 612.051 254.974 612.196 254.027C612.341 253.079 612.685 252.173 613.204 251.368C613.724 250.562 614.408 249.876 615.211 249.353C616.014 248.83 616.919 248.483 617.866 248.334C623.572 247.563 630.582 255.214 632.802 259.838C632.912 260.095 633.866 262.792 634.508 264.774C634.38 263.563 634.251 262.333 634.086 261.104C633.517 256.792 632.71 252.884 631.976 249.416C631.536 247.453 631.114 245.746 630.692 244.04C628.857 243.123 621.664 239.361 619.206 236.297C616.747 233.233 614.545 228.848 615.536 224.903C615.746 223.976 616.148 223.103 616.715 222.341C617.283 221.579 618.004 220.944 618.832 220.477C619.66 220.011 620.576 219.722 621.522 219.631C622.468 219.54 623.423 219.648 624.325 219.949Z" fill="#FD6F00"/>
<path d="M728.324 308.645C723.829 308.462 714.838 303.838 714.838 303.838C714.838 303.838 719.664 298.847 720.012 298.554C724.03 295.361 733.682 291.526 738.471 294.719C739.254 295.267 739.912 295.975 740.402 296.795C740.893 297.616 741.204 298.53 741.317 299.48C741.43 300.429 741.341 301.391 741.056 302.303C740.771 303.216 740.296 304.058 739.663 304.774C737.076 307.911 732.159 308.792 728.324 308.645Z" fill="#FD6F00"/>
<g opacity="0.5">
<path d="M635.461 266.04C635.351 266.04 636.746 259.196 636.874 258.701C638.452 253.82 644.397 245.306 650.14 245.306C651.096 245.336 652.035 245.566 652.896 245.982C653.757 246.398 654.521 246.99 655.138 247.72C655.756 248.45 656.213 249.302 656.48 250.22C656.748 251.138 656.819 252.102 656.69 253.049C656.268 257.086 652.635 260.535 649.351 262.517C645.498 264.921 635.461 266.04 635.461 266.04Z" fill="white"/>
<path d="M624.325 219.949C629.737 221.893 632.435 231.912 632.251 237.049C632.251 237.49 631.224 244.389 631.132 244.389H631.022C631.444 245.967 631.903 247.655 632.361 249.526C633.169 252.976 634.049 256.866 634.728 261.196C635.515 265.834 636.03 270.515 636.27 275.214C636.562 280.479 636.384 285.76 635.737 290.994C635.73 291.055 635.73 291.116 635.737 291.177C636.453 289.654 638.581 285.452 638.765 285.141C641.591 280.847 649.554 274.131 655.113 275.728C656.026 276.006 656.87 276.474 657.59 277.1C658.31 277.727 658.89 278.498 659.291 279.364C659.693 280.23 659.908 281.17 659.921 282.125C659.935 283.079 659.747 284.025 659.37 284.902C657.902 288.7 653.499 291.049 649.811 292.113C645.646 293.287 636.361 291.893 635.627 291.783C634.841 297.088 633.701 302.335 632.215 307.489C631.358 310.498 630.429 313.501 629.426 316.498C630.068 315.195 630.673 314.039 630.765 313.893C633.591 309.599 641.572 302.883 647.113 304.48C648.026 304.758 648.87 305.226 649.59 305.852C650.31 306.479 650.89 307.25 651.291 308.116C651.693 308.982 651.908 309.922 651.921 310.877C651.935 311.831 651.747 312.777 651.37 313.654C649.902 317.434 645.499 319.801 641.811 320.847C638.123 321.892 630.123 320.847 628.031 320.59L626.875 324.021C625.04 329.525 623.04 335.03 621.371 340.424C620.765 342.259 620.233 344.241 619.701 346.149C620.288 344.993 620.783 344.021 620.875 343.892C623.701 339.58 631.664 332.883 637.205 334.479C638.118 334.758 638.962 335.226 639.682 335.852C640.403 336.479 640.983 337.249 641.386 338.114C641.79 338.979 642.006 339.92 642.022 340.874C642.039 341.828 641.854 342.775 641.48 343.654C640.013 347.434 635.591 349.8 631.903 350.846C628.215 351.892 621.004 350.975 618.508 350.626C618.013 352.589 617.536 354.571 617.15 356.498C616.912 357.819 616.6 359.066 616.435 360.424L615.884 364.351C615.628 366.865 615.334 369.452 615.15 371.91C615.004 373.635 614.894 375.268 614.784 376.901C615.371 375.066 616.618 371.268 616.71 370.975C618.747 366.941 621.779 363.494 625.517 360.956C625.725 360.493 625.977 360.05 626.27 359.635C626.789 358.834 627.472 358.151 628.273 357.631C629.075 357.111 629.977 356.766 630.921 356.619C631.865 356.472 632.829 356.526 633.751 356.777C634.672 357.028 635.531 357.47 636.27 358.076C640.636 361.837 639.536 372.149 637.536 376.883C637.425 377.158 635.792 380.057 634.747 381.855C635.536 380.883 636.27 380.02 637.095 378.956C638.692 376.993 640.343 375.085 642.104 373.03L644.802 370.112C645.682 369.121 646.746 368.186 647.719 367.195C650.012 364.975 652.453 362.828 654.967 360.736C653.26 359.323 647.242 354.259 645.517 350.81C643.792 347.36 642.563 342.535 644.361 338.883C644.756 338.012 645.33 337.234 646.046 336.599C646.762 335.965 647.604 335.488 648.516 335.201C649.428 334.914 650.391 334.822 651.341 334.931C652.291 335.041 653.208 335.35 654.031 335.837C658.893 338.883 659.389 349.25 658.123 354.186C658.123 354.498 656.728 357.984 655.976 359.874C657.499 358.608 659.003 357.36 660.581 356.204C665.132 352.7 669.847 349.287 674.526 345.856L678.801 342.681C678.196 342.186 670.93 336.314 668.985 332.443C667.278 329.012 666.031 324.168 667.829 320.535C668.222 319.662 668.795 318.882 669.51 318.246C670.225 317.609 671.066 317.131 671.979 316.842C672.891 316.553 673.855 316.459 674.806 316.567C675.757 316.676 676.674 316.984 677.498 317.471C682.379 320.535 682.856 330.883 681.59 335.819C681.498 336.186 679.609 341.177 679.076 342.424C682.196 340.094 685.297 337.746 688.251 335.305C692.266 332.017 696.066 328.475 699.627 324.7C699.351 324.48 691.737 318.37 689.755 314.425C688.03 310.993 686.801 306.15 688.599 302.498C688.993 301.628 689.565 300.85 690.279 300.216C690.992 299.581 691.832 299.104 692.742 298.815C693.652 298.526 694.613 298.432 695.562 298.538C696.511 298.645 697.427 298.95 698.251 299.434C703.131 302.498 703.627 312.865 702.361 317.782C702.269 318.113 700.838 321.929 700.122 323.709C700.206 323.781 700.299 323.842 700.397 323.892C703.878 319.995 707.003 315.795 709.737 311.342C711.278 308.92 712.599 306.498 713.847 304.131C712.305 303.14 705.351 298.627 703.168 295.177C700.984 291.728 699.333 287.269 700.709 283.453C701.006 282.544 701.491 281.709 702.132 281C702.773 280.292 703.556 279.726 704.43 279.34C705.304 278.954 706.249 278.757 707.205 278.76C708.16 278.764 709.104 278.968 709.975 279.361C715.168 281.856 716.782 292.205 716.067 297.195C716.067 297.471 715.333 300.241 714.801 302.241C715.333 301.177 715.92 300.058 716.416 299.012C718.25 295.104 719.81 291.397 721.094 288.113C721.828 286.278 722.434 284.443 722.929 282.902C721.92 281.159 717.994 274.021 717.608 270.058C717.223 266.095 717.847 261.269 720.837 258.517C721.518 257.847 722.333 257.327 723.228 256.993C724.123 256.658 725.078 256.516 726.032 256.574C726.985 256.633 727.916 256.892 728.763 257.334C729.61 257.777 730.354 258.392 730.948 259.141C734.397 263.746 731.113 273.599 728.14 277.783C727.883 278.15 723.204 283.287 723.149 283.287V283.177C722.636 284.737 722.085 286.388 721.425 288.205C720.214 291.526 718.801 295.269 716.984 299.214C715.064 303.516 712.902 307.707 710.507 311.764C707.835 316.309 704.765 320.607 701.333 324.608L701.205 324.736C702.636 323.856 706.709 321.526 707.058 321.379C711.792 319.342 722.104 318.204 725.883 322.535C726.492 323.272 726.938 324.128 727.193 325.049C727.449 325.97 727.507 326.934 727.366 327.879C727.224 328.824 726.884 329.729 726.37 330.534C725.855 331.339 725.177 332.027 724.379 332.553C721.058 334.902 716.085 334.388 712.416 333.287C708.287 331.984 701.407 325.691 700.783 325.195C697.194 329.183 693.344 332.928 689.26 336.406C686.893 338.443 684.434 340.424 681.92 342.388C683.187 341.672 684.324 341.03 684.489 340.956C689.205 338.92 699.517 337.782 703.296 342.112C703.908 342.848 704.356 343.705 704.613 344.626C704.87 345.547 704.93 346.513 704.788 347.459C704.646 348.404 704.305 349.31 703.789 350.115C703.273 350.92 702.592 351.607 701.792 352.131C698.489 354.479 693.498 353.966 689.847 352.865C686.196 351.764 680.086 346.443 678.508 345.03C677.535 345.782 676.673 346.534 675.627 347.268C671.021 350.81 666.453 354.314 661.957 357.892C660.398 359.158 658.911 360.443 657.407 361.745L659.645 360.498C664.361 358.479 674.673 357.323 678.453 361.672C679.064 362.408 679.513 363.264 679.77 364.186C680.027 365.107 680.086 366.072 679.944 367.018C679.802 367.964 679.462 368.869 678.945 369.674C678.429 370.479 677.748 371.166 676.948 371.69C673.627 374.039 668.655 373.525 665.003 372.406C661.352 371.286 655.829 366.498 653.994 364.846C652.508 366.204 651.003 367.58 649.627 368.975C648.691 369.947 647.792 370.809 646.875 371.855L644.233 374.846C642.636 376.791 640.967 378.791 639.444 380.736C638.38 382.094 637.389 383.396 636.398 384.699C637.921 383.433 641.003 381.03 641.279 380.828C645.627 378.094 655.664 375.415 660.049 379.121C660.76 379.76 661.328 380.54 661.717 381.413C662.106 382.285 662.307 383.23 662.307 384.185C662.307 385.141 662.106 386.085 661.717 386.958C661.328 387.83 660.76 388.611 660.049 389.25C657.113 392.075 652.123 392.369 648.343 391.782C644.159 391.14 636.6 386.277 635.664 385.598C634.013 387.763 632.435 389.892 630.967 391.91C625.884 398.938 621.921 404.993 619.206 409.249C619.206 409.415 619.022 409.543 618.93 409.69L615.407 407.983L615.958 407.139C618.802 402.901 622.949 396.883 628.233 389.892C629.903 387.672 631.719 385.36 633.609 382.974C631.642 380.835 629.804 378.58 628.104 376.222C624.049 377.8 615.646 377.855 614.545 377.855C614.38 380.589 614.233 383.231 614.123 385.727C613.756 394.406 613.793 401.635 613.884 406.681V407.268L610.013 405.433C610.013 400.405 610.215 393.617 610.729 385.58C610.894 382.828 611.132 379.874 611.407 376.846C610.325 376.589 601.573 374.332 598.27 371.69C595.279 369.305 592.123 365.415 592.233 361.36C592.223 360.404 592.415 359.456 592.797 358.579C593.178 357.702 593.741 356.915 594.448 356.271C595.155 355.626 595.99 355.138 596.898 354.839C597.807 354.54 598.768 354.436 599.719 354.534C605.426 355.268 610.215 364.461 611.151 369.525C611.151 369.819 611.444 373.195 611.554 375.195C611.683 373.965 611.774 372.773 611.921 371.525C612.16 369.011 612.49 366.516 612.839 363.819C613.04 362.534 613.261 361.213 613.462 359.892C613.664 358.571 614.013 357.213 614.288 355.874C614.985 352.736 615.829 349.599 616.765 346.461C614.563 346.241 606.765 345.323 603.407 343.397C600.05 341.47 596.38 338.131 595.885 334.094C595.731 333.151 595.778 332.186 596.024 331.262C596.269 330.339 596.706 329.477 597.307 328.734C597.908 327.991 598.659 327.383 599.511 326.95C600.363 326.518 601.297 326.27 602.252 326.223C607.995 326.076 614.123 334.443 615.811 339.305C615.921 339.599 616.747 343.213 617.15 345.213C617.738 343.379 618.288 341.452 618.985 339.562C620.82 334.058 622.894 328.681 624.912 323.232C625.536 321.562 626.123 319.893 626.747 318.223C625.958 318.223 616.655 317.269 612.912 315.104C609.591 313.269 605.885 309.838 605.371 305.801C605.22 304.858 605.27 303.894 605.516 302.972C605.762 302.049 606.2 301.189 606.8 300.446C607.401 299.704 608.151 299.096 609.001 298.663C609.852 298.229 610.784 297.979 611.738 297.929C617.499 297.783 623.627 306.168 625.316 311.012C625.444 311.379 626.618 316.516 626.857 317.929C628.178 314.26 629.481 310.59 630.526 306.92C632.076 301.965 633.302 296.915 634.196 291.801C633.829 291.801 624.123 290.884 620.288 288.682C616.949 286.755 613.242 283.397 612.747 279.361C612.593 278.418 612.641 277.453 612.886 276.529C613.131 275.605 613.568 274.744 614.169 274.001C614.77 273.258 615.521 272.65 616.373 272.217C617.225 271.784 618.159 271.536 619.114 271.489C624.857 271.343 630.985 279.728 632.673 284.572C632.783 284.884 633.701 288.865 634.086 290.755H634.398C635.156 285.587 635.451 280.361 635.279 275.141C635.279 272.278 635.003 269.526 634.728 266.866C632.893 266.866 624.563 266.866 620.894 265.288C617.224 263.71 613.316 260.811 612.362 256.866C612.107 255.942 612.051 254.974 612.196 254.027C612.341 253.079 612.685 252.173 613.204 251.368C613.724 250.562 614.408 249.876 615.211 249.353C616.014 248.83 616.919 248.483 617.866 248.334C623.572 247.563 630.582 255.214 632.802 259.838C632.912 260.095 633.866 262.792 634.508 264.774C634.38 263.563 634.251 262.333 634.086 261.104C633.517 256.792 632.71 252.884 631.976 249.416C631.536 247.453 631.114 245.746 630.692 244.04C628.857 243.123 621.664 239.361 619.206 236.297C616.747 233.233 614.545 228.848 615.536 224.903C615.746 223.976 616.148 223.103 616.715 222.341C617.283 221.579 618.004 220.944 618.832 220.477C619.66 220.011 620.576 219.722 621.522 219.631C622.468 219.54 623.423 219.648 624.325 219.949Z" fill="white"/>
<path d="M728.324 308.645C723.829 308.461 714.838 303.838 714.838 303.838C714.838 303.838 719.664 298.847 720.012 298.553C724.03 295.361 733.682 291.526 738.471 294.718C739.254 295.267 739.912 295.974 740.402 296.795C740.893 297.615 741.204 298.53 741.317 299.479C741.43 300.428 741.341 301.39 741.056 302.303C740.771 303.215 740.296 304.057 739.663 304.773C737.076 307.911 732.159 308.792 728.324 308.645Z" fill="white"/>
</g>
<path d="M675.828 421.212C675.828 421.212 648.544 355.452 633.278 358.314C618.012 361.176 659.461 463.157 659.461 463.157C659.461 463.157 611.462 372.607 578.728 372.607C545.994 372.607 590.728 472.68 632.195 506.037C632.195 506.037 566.728 435.506 528.545 450.772C490.362 466.038 604.966 537.505 604.966 537.505C604.966 537.505 538.416 516.533 546.049 532.734C553.682 548.936 574.416 551.798 574.416 551.798L499.188 555.615H760.928L702.011 549.89C702.011 549.89 763.111 519.395 746.745 506.991C730.378 494.588 694.378 521.285 694.378 521.285C694.378 521.285 756.561 452.662 744.561 426.937C732.561 401.213 679.094 473.634 679.094 473.634C679.094 473.634 722.745 381.194 713.956 364.974C705.167 348.754 675.828 421.212 675.828 421.212Z" fill="#FD6F00"/>
<path opacity="0.4" d="M675.828 421.212C675.828 421.212 648.544 355.452 633.278 358.314C618.012 361.176 659.461 463.157 659.461 463.157C659.461 463.157 611.462 372.607 578.728 372.607C545.994 372.607 590.728 472.68 632.195 506.037C632.195 506.037 566.728 435.506 528.545 450.772C490.362 466.038 604.966 537.505 604.966 537.505C604.966 537.505 538.416 516.533 546.049 532.734C553.682 548.936 574.416 551.798 574.416 551.798L499.188 555.615H760.928L702.011 549.89C702.011 549.89 763.111 519.395 746.745 506.991C730.378 494.588 694.378 521.285 694.378 521.285C694.378 521.285 756.561 452.662 744.561 426.937C732.561 401.213 679.094 473.634 679.094 473.634C679.094 473.634 722.745 381.194 713.956 364.974C705.167 348.754 675.828 421.212 675.828 421.212Z" fill="white"/>
<path d="M684.562 424.681C660.563 495.597 660.562 545.78 660.562 545.78C660.562 545.78 688.929 546.881 718.378 525.065" stroke="#263238" stroke-width="0.607119" stroke-linecap="round" stroke-linejoin="round"/>
<path d="M672.561 462.864C667.609 441.664 661.04 420.876 652.91 400.681" stroke="#263238" stroke-width="0.607119" stroke-linecap="round" stroke-linejoin="round"/>
<path d="M601.645 421.415L662.727 511.964C662.727 511.964 704.194 477.102 718.377 457.414" stroke="#263238" stroke-width="0.607119" stroke-linecap="round" stroke-linejoin="round"/>
<path d="M661.643 533.78C661.643 533.78 597.277 503.23 571.094 485.781" stroke="#263238" stroke-width="0.607119" stroke-linecap="round" stroke-linejoin="round"/>
<path d="M253.96 92.2071L238.969 68.2808H106.934V92.2071V100.813V498.864H650.414V92.2071H253.96Z" fill="#263238"/>
<path d="M646.837 103.179H110.971V490.185H646.837V103.179Z" fill="white"/>
<mask id="mask0_1829_3044" style="mask-type:luminance" maskUnits="userSpaceOnUse" x="110" y="103" width="537" height="388">
<path d="M646.835 103.18H110.969V490.185H646.835V103.18Z" fill="white"/>
</mask>
<g mask="url(#mask0_1829_3044)">
<path opacity="0.17" d="M649.458 99.8584H637.018V493.121H649.458V99.8584Z" fill="black"/>
<path opacity="0.17" d="M649.458 337.636H637.018V489.928H649.458V337.636Z" fill="black"/>
<path d="M647.532 97.9502H108.84V118.996H647.532V97.9502Z" fill="#FD6F00" stroke="#263238" stroke-width="0.607119" stroke-miterlimit="10"/>
</g>
<path d="M646.837 103.179H110.971V490.185H646.837V103.179Z" stroke="#263238" stroke-width="0.607119" stroke-linecap="round" stroke-linejoin="round"/>
<g opacity="0.17">
<path d="M390.162 139.289H352.676C352.242 139.289 351.813 139.204 351.412 139.038C351.011 138.872 350.647 138.629 350.34 138.322C350.034 138.015 349.79 137.651 349.625 137.251C349.459 136.85 349.373 136.42 349.373 135.987C349.371 135.551 349.454 135.12 349.619 134.717C349.784 134.314 350.027 133.948 350.334 133.639C350.641 133.331 351.006 133.086 351.408 132.919C351.81 132.752 352.241 132.666 352.676 132.666H390.162C390.597 132.666 391.028 132.752 391.43 132.919C391.832 133.086 392.197 133.331 392.504 133.639C392.81 133.948 393.053 134.314 393.218 134.717C393.383 135.12 393.467 135.551 393.464 135.987C393.464 136.42 393.379 136.85 393.213 137.251C393.047 137.651 392.804 138.015 392.497 138.322C392.19 138.629 391.826 138.872 391.426 139.038C391.025 139.204 390.595 139.289 390.162 139.289Z" fill="black"/>
<path d="M465.134 139.289H427.648C426.774 139.284 425.937 138.935 425.318 138.317C424.7 137.698 424.351 136.861 424.346 135.987C424.346 135.109 424.693 134.267 425.312 133.645C425.931 133.022 426.771 132.67 427.648 132.666H465.134C466.015 132.666 466.86 133.015 467.483 133.638C468.105 134.261 468.455 135.106 468.455 135.987C468.451 136.864 468.098 137.704 467.476 138.323C466.854 138.942 466.012 139.289 465.134 139.289Z" fill="black"/>
<path d="M540.123 139.289H502.637C501.76 139.289 500.918 138.942 500.296 138.323C499.673 137.704 499.321 136.864 499.316 135.987C499.316 135.106 499.666 134.261 500.289 133.638C500.912 133.015 501.757 132.666 502.637 132.666H540.123C541.001 132.67 541.841 133.022 542.46 133.645C543.079 134.267 543.426 135.109 543.426 135.987C543.421 136.861 543.072 137.698 542.453 138.317C541.835 138.935 540.998 139.284 540.123 139.289Z" fill="black"/>
<path d="M615.095 139.289H577.609C577.176 139.289 576.746 139.204 576.346 139.038C575.945 138.872 575.581 138.629 575.274 138.322C574.967 138.015 574.724 137.651 574.558 137.251C574.392 136.85 574.307 136.42 574.307 135.987C574.304 135.551 574.388 135.12 574.553 134.717C574.718 134.314 574.961 133.948 575.268 133.639C575.574 133.331 575.939 133.086 576.341 132.919C576.743 132.752 577.174 132.666 577.609 132.666H615.095C615.973 132.67 616.813 133.022 617.432 133.645C618.051 134.267 618.398 135.109 618.398 135.987C618.393 136.861 618.044 137.698 617.425 138.317C616.807 138.935 615.97 139.284 615.095 139.289Z" fill="black"/>
</g>
<path d="M161.611 297.251H218.253" stroke="#263238" stroke-width="1.82136" stroke-linecap="round" stroke-linejoin="round"/>
<path d="M217.244 306.077H223.428" stroke="#263238" stroke-width="0.607119" stroke-linecap="round" stroke-linejoin="round"/>
<path d="M181.775 306.077H213.5" stroke="#263238" stroke-width="0.607119" stroke-linecap="round" stroke-linejoin="round"/>
<path d="M157.281 306.077H178.419" stroke="#263238" stroke-width="0.607119" stroke-linecap="round" stroke-linejoin="round"/>
<path d="M197.445 314.902H223.427" stroke="#263238" stroke-width="0.607119" stroke-linecap="round" stroke-linejoin="round"/>
<path d="M183.264 314.902H193.355" stroke="#263238" stroke-width="0.607119" stroke-linecap="round" stroke-linejoin="round"/>
<path d="M157.281 314.902H178.786" stroke="#263238" stroke-width="0.607119" stroke-linecap="round" stroke-linejoin="round"/>
<path d="M171.318 323.709H223.428" stroke="#263238" stroke-width="0.607119" stroke-linecap="round" stroke-linejoin="round"/>
<path d="M157.281 323.709H166.474" stroke="#263238" stroke-width="0.607119" stroke-linecap="round" stroke-linejoin="round"/>
<path d="M210.529 332.535H223.428" stroke="#263238" stroke-width="0.607119" stroke-linecap="round" stroke-linejoin="round"/>
<path d="M185.887 332.535H206.033" stroke="#263238" stroke-width="0.607119" stroke-linecap="round" stroke-linejoin="round"/>
<path d="M157.281 332.535H181.776" stroke="#263238" stroke-width="0.607119" stroke-linecap="round" stroke-linejoin="round"/>
<path d="M178.785 341.36H223.427" stroke="#263238" stroke-width="0.607119" stroke-linecap="round" stroke-linejoin="round"/>
<path d="M157.281 341.36H174.676" stroke="#263238" stroke-width="0.607119" stroke-linecap="round" stroke-linejoin="round"/>
<path d="M290.785 297.251H347.427" stroke="#263238" stroke-width="1.82136" stroke-linecap="round" stroke-linejoin="round"/>
<path d="M346.416 306.077H352.599" stroke="#263238" stroke-width="0.607119" stroke-linecap="round" stroke-linejoin="round"/>
<path d="M310.949 306.077H342.674" stroke="#263238" stroke-width="0.607119" stroke-linecap="round" stroke-linejoin="round"/>
<path d="M286.455 306.077H307.592" stroke="#263238" stroke-width="0.607119" stroke-linecap="round" stroke-linejoin="round"/>
<path d="M326.619 314.902H352.601" stroke="#263238" stroke-width="0.607119" stroke-linecap="round" stroke-linejoin="round"/>
<path d="M312.436 314.902H322.527" stroke="#263238" stroke-width="0.607119" stroke-linecap="round" stroke-linejoin="round"/>
<path d="M286.455 314.902H307.959" stroke="#263238" stroke-width="0.607119" stroke-linecap="round" stroke-linejoin="round"/>
<path d="M300.492 323.709H352.602" stroke="#263238" stroke-width="0.607119" stroke-linecap="round" stroke-linejoin="round"/>
<path d="M286.455 323.709H295.648" stroke="#263238" stroke-width="0.607119" stroke-linecap="round" stroke-linejoin="round"/>
<path d="M339.701 332.535H352.6" stroke="#263238" stroke-width="0.607119" stroke-linecap="round" stroke-linejoin="round"/>
<path d="M315.061 332.535H335.207" stroke="#263238" stroke-width="0.607119" stroke-linecap="round" stroke-linejoin="round"/>
<path d="M286.455 332.535H310.95" stroke="#263238" stroke-width="0.607119" stroke-linecap="round" stroke-linejoin="round"/>
<path d="M307.959 341.36H352.601" stroke="#263238" stroke-width="0.607119" stroke-linecap="round" stroke-linejoin="round"/>
<path d="M286.455 341.36H303.849" stroke="#263238" stroke-width="0.607119" stroke-linecap="round" stroke-linejoin="round"/>
<path d="M419.957 297.251H476.599" stroke="#263238" stroke-width="1.82136" stroke-linecap="round" stroke-linejoin="round"/>
<path d="M475.59 306.077H481.773" stroke="#263238" stroke-width="0.607119" stroke-linecap="round" stroke-linejoin="round"/>
<path d="M440.123 306.077H471.848" stroke="#263238" stroke-width="0.607119" stroke-linecap="round" stroke-linejoin="round"/>
<path d="M415.627 306.077H436.764" stroke="#263238" stroke-width="0.607119" stroke-linecap="round" stroke-linejoin="round"/>
<path d="M455.791 314.902H481.772" stroke="#263238" stroke-width="0.607119" stroke-linecap="round" stroke-linejoin="round"/>
<path d="M441.609 314.902H451.701" stroke="#263238" stroke-width="0.607119" stroke-linecap="round" stroke-linejoin="round"/>
<path d="M415.627 314.902H437.131" stroke="#263238" stroke-width="0.607119" stroke-linecap="round" stroke-linejoin="round"/>
<path d="M429.664 323.709H481.774" stroke="#263238" stroke-width="0.607119" stroke-linecap="round" stroke-linejoin="round"/>
<path d="M415.627 323.709H424.82" stroke="#263238" stroke-width="0.607119" stroke-linecap="round" stroke-linejoin="round"/>
<path d="M468.875 332.535H481.774" stroke="#263238" stroke-width="0.607119" stroke-linecap="round" stroke-linejoin="round"/>
<path d="M444.232 332.535H464.379" stroke="#263238" stroke-width="0.607119" stroke-linecap="round" stroke-linejoin="round"/>
<path d="M415.627 332.535H440.122" stroke="#263238" stroke-width="0.607119" stroke-linecap="round" stroke-linejoin="round"/>
<path d="M437.133 341.36H481.775" stroke="#263238" stroke-width="0.607119" stroke-linecap="round" stroke-linejoin="round"/>
<path d="M415.627 341.36H433.021" stroke="#263238" stroke-width="0.607119" stroke-linecap="round" stroke-linejoin="round"/>
<path d="M549.131 297.251H605.772" stroke="#263238" stroke-width="1.82136" stroke-linecap="round" stroke-linejoin="round"/>
<path d="M604.764 306.077H610.947" stroke="#263238" stroke-width="0.607119" stroke-linecap="round" stroke-linejoin="round"/>
<path d="M569.295 306.077H601.019" stroke="#263238" stroke-width="0.607119" stroke-linecap="round" stroke-linejoin="round"/>
<path d="M544.801 306.077H565.938" stroke="#263238" stroke-width="0.607119" stroke-linecap="round" stroke-linejoin="round"/>
<path d="M584.965 314.902H610.946" stroke="#263238" stroke-width="0.607119" stroke-linecap="round" stroke-linejoin="round"/>
<path d="M570.781 314.902H580.873" stroke="#263238" stroke-width="0.607119" stroke-linecap="round" stroke-linejoin="round"/>
<path d="M544.801 314.902H566.305" stroke="#263238" stroke-width="0.607119" stroke-linecap="round" stroke-linejoin="round"/>
<path d="M558.838 323.709H610.948" stroke="#263238" stroke-width="0.607119" stroke-linecap="round" stroke-linejoin="round"/>
<path d="M544.801 323.709H553.993" stroke="#263238" stroke-width="0.607119" stroke-linecap="round" stroke-linejoin="round"/>
<path d="M598.047 332.535H610.946" stroke="#263238" stroke-width="0.607119" stroke-linecap="round" stroke-linejoin="round"/>
<path d="M573.406 332.535H593.553" stroke="#263238" stroke-width="0.607119" stroke-linecap="round" stroke-linejoin="round"/>
<path d="M544.801 332.535H569.296" stroke="#263238" stroke-width="0.607119" stroke-linecap="round" stroke-linejoin="round"/>
<path d="M566.305 341.36H610.946" stroke="#263238" stroke-width="0.607119" stroke-linecap="round" stroke-linejoin="round"/>
<path d="M544.801 341.36H562.195" stroke="#263238" stroke-width="0.607119" stroke-linecap="round" stroke-linejoin="round"/>
<path d="M628.396 268.829H129.318V165.876H628.396V268.829Z" fill="#FD6F00"/>
<path opacity="0.7" d="M628.396 268.829H129.318V165.876H628.396V268.829Z" fill="white"/>
<path d="M502.104 268.829H255.703V165.876H502.104V268.829Z" fill="#FD6F00"/>
<path opacity="0.92" d="M502.104 268.829H255.703V165.876H502.104V268.829Z" fill="white"/>
<path d="M451.756 195.71H468.545" stroke="#263238" stroke-width="0.607119" stroke-linecap="round" stroke-linejoin="round"/>
<path d="M355.646 195.71H441.646" stroke="#263238" stroke-width="0.607119" stroke-linecap="round" stroke-linejoin="round"/>
<path d="M289.262 195.71H346.527" stroke="#263238" stroke-width="0.607119" stroke-linecap="round" stroke-linejoin="round"/>
<path d="M398.141 204.536H468.544" stroke="#263238" stroke-width="0.607119" stroke-linecap="round" stroke-linejoin="round"/>
<path d="M359.684 204.536H387.004" stroke="#263238" stroke-width="0.607119" stroke-linecap="round" stroke-linejoin="round"/>
<path d="M289.262 204.536H347.555" stroke="#263238" stroke-width="0.607119" stroke-linecap="round" stroke-linejoin="round"/>
<path d="M327.316 213.362H468.544" stroke="#263238" stroke-width="0.607119" stroke-linecap="round" stroke-linejoin="round"/>
<path d="M289.262 213.362H314.161" stroke="#263238" stroke-width="0.607119" stroke-linecap="round" stroke-linejoin="round"/>
<path d="M433.555 222.188H468.545" stroke="#263238" stroke-width="0.607119" stroke-linecap="round" stroke-linejoin="round"/>
<path d="M366.766 222.188H421.407" stroke="#263238" stroke-width="0.607119" stroke-linecap="round" stroke-linejoin="round"/>
<path d="M289.262 222.188H355.646" stroke="#263238" stroke-width="0.607119" stroke-linecap="round" stroke-linejoin="round"/>
<path d="M347.555 230.995H468.544" stroke="#263238" stroke-width="0.607119" stroke-linecap="round" stroke-linejoin="round"/>
<path d="M289.262 230.995H336.417" stroke="#263238" stroke-width="0.607119" stroke-linecap="round" stroke-linejoin="round"/>
<path d="M628.396 488.9H129.318V385.947H628.396V488.9Z" fill="#FD6F00"/>
<path opacity="0.7" d="M628.396 488.9H129.318V385.947H628.396V488.9Z" fill="white"/>
<mask id="mask1_1829_3044" style="mask-type:luminance" maskUnits="userSpaceOnUse" x="521" y="344" width="112" height="146">
<path d="M632.252 344.149H521.445V489.542H632.252V344.149Z" fill="white"/>
</mask>
<g mask="url(#mask1_1829_3044)">
<path d="M569.335 425.12C569.335 425.12 540.106 436.863 535.519 438.313C530.931 439.762 530.656 441.744 530.656 448.038C530.656 454.331 531.519 482.716 531.519 485.01C531.519 487.303 531.225 491.597 531.225 491.597H626.986C626.986 491.597 620.674 465.909 616.949 453.781C613.224 441.652 614.949 440.588 608.362 436.588C601.775 432.588 584.509 426.845 580.839 425.983C577.034 425.386 573.187 425.097 569.335 425.12Z" fill="#263238" stroke="#263238" stroke-width="0.607119" stroke-linecap="round" stroke-linejoin="round"/>
<path d="M570.766 421.965C570.766 421.965 563.885 421.396 561.023 427.139C558.16 432.882 551.28 446.258 551.28 446.258L559.591 451.414L549.922 456.35C551.537 463.429 553.546 470.412 555.94 477.267C557.605 481.766 559.517 486.17 561.665 490.459C561.665 490.459 575.61 474.698 581.114 469.817C584.744 466.345 587.748 462.273 589.995 457.781L582.839 451.194L595.169 449.763C595.169 449.763 592.013 433.726 587.995 427.139C583.977 420.552 570.766 421.965 570.766 421.965Z" fill="#263238" stroke="#263238" stroke-width="0.607119" stroke-linecap="round" stroke-linejoin="round"/>
<path d="M556.693 477.451C557.207 478.882 557.758 480.24 558.29 481.432" stroke="white" stroke-width="0.303559" stroke-linecap="round" stroke-linejoin="round"/>
<path d="M557.737 434.276L551.279 446.258L559.59 451.414L550.691 456.46C550.691 456.46 552.765 465.505 555.37 473.615" stroke="white" stroke-width="0.303559" stroke-linecap="round" stroke-linejoin="round"/>
<path d="M590.289 428.846L595.115 449.763L582.784 451.194L589.94 457.781C589.94 457.781 576.179 473.909 570.473 480.423" stroke="white" stroke-width="0.303559" stroke-linecap="round" stroke-linejoin="round"/>
<path d="M608.306 460.937L603.15 492.753" stroke="white" stroke-width="0.303559" stroke-linecap="round" stroke-linejoin="round"/>
<path d="M537.537 455.212C537.537 455.212 536.968 474.405 537.243 480.423C537.471 484.238 538.243 488.001 539.537 491.597" stroke="white" stroke-width="0.303559" stroke-linecap="round" stroke-linejoin="round"/>
<path d="M590.545 468.68L595.407 462.093L599.426 468.68H590.545Z" fill="white" stroke="#263238" stroke-width="0.607119" stroke-miterlimit="10"/>
<path d="M596.271 405.635C596.271 405.635 601.133 405.066 602.289 412.24C603.445 419.414 599.996 428.57 588.528 428.57C577.06 428.57 577.941 419.965 578.216 413.671C578.491 407.378 596.271 405.635 596.271 405.635Z" fill="#263238" stroke="#263238" stroke-width="0.607119" stroke-miterlimit="10"/>
<path d="M567.903 417.396C567.903 417.396 567.609 425.69 567.04 435.157C566.471 444.625 561.884 457.506 561.884 468.386C561.845 474.416 562.133 480.443 562.747 486.441C562.747 486.441 572.196 468.093 576.49 457.506C580.783 446.919 585.664 416.24 585.664 416.24L567.903 417.396Z" fill="white" stroke="#263238" stroke-width="0.607119" stroke-miterlimit="10"/>
<path d="M595.976 398.552C598.109 394.374 599.288 389.774 599.425 385.085C599.425 377.929 597.994 368.186 589.682 363.874C581.37 359.562 565.315 362.443 561.315 370.754C558.615 376.068 557.35 381.994 557.646 387.947C557.935 391.165 558.606 394.337 559.646 397.396C559.646 397.396 560.802 391.892 568.526 389.103C576.251 386.314 584.581 383.36 588.581 385.433C592.581 387.507 595.976 398.552 595.976 398.552Z" fill="#263238" stroke="#263238" stroke-width="0.607119" stroke-linecap="round" stroke-linejoin="round"/>
<path d="M559.885 395.617C559.885 395.617 556.436 390.461 555.004 394.185C553.573 397.91 555.592 403.36 557.867 404.497C560.142 405.635 561.316 405.066 561.316 405.066L559.885 395.617Z" fill="white" stroke="#263238" stroke-width="0.607119" stroke-linecap="round" stroke-linejoin="round"/>
<path d="M595.977 396.479C595.977 396.479 599.995 392.46 599.995 396.185C599.793 399.642 598.509 402.947 596.325 405.635C594.601 407.928 593.738 406.791 593.738 406.791L595.977 396.479Z" fill="white" stroke="#263238" stroke-width="0.607119" stroke-linecap="round" stroke-linejoin="round"/>
<path d="M589.168 379.984L592.012 371.966C592.124 371.652 592.107 371.306 591.964 371.005C591.821 370.704 591.564 370.472 591.251 370.36C590.937 370.248 590.591 370.266 590.29 370.408C589.989 370.551 589.757 370.808 589.645 371.122L587.26 377.819C584.75 377.225 582.146 377.15 579.606 377.598C577.066 378.046 574.644 379.008 572.489 380.424C565.04 385.305 559.021 389.598 559.021 389.598C559.021 389.598 559.315 405.929 562.453 411.947C565.59 417.965 571.058 425.121 575.645 425.121C580.232 425.121 588.251 415.103 591.406 411.947C594.562 408.791 596.562 396.479 596.562 392.461C596.562 389.58 591.829 383.305 589.168 379.984Z" fill="white" stroke="#263238" stroke-width="0.607119" stroke-miterlimit="10"/>
<path d="M577.884 453.598C573.23 454.019 568.54 453.392 564.16 451.763C562.847 457.257 562.085 462.869 561.884 468.515C561.845 474.544 562.133 480.571 562.747 486.57C562.747 486.57 572.196 468.221 576.49 457.634C576.948 456.387 577.444 455.01 577.884 453.598Z" fill="#FD6F00" stroke="#263238" stroke-width="0.607119" stroke-miterlimit="10"/>
</g>
<mask id="mask2_1829_3044" style="mask-type:luminance" maskUnits="userSpaceOnUse" x="391" y="344" width="112" height="146">
<path d="M502.378 344.15H391.572V489.543H502.378V344.15Z" fill="white"/>
</mask>
<g mask="url(#mask2_1829_3044)">
<path d="M442.454 409.911C435.145 410.74 427.887 411.965 420.711 413.58C412.325 415.745 408.289 416.681 408.289 420.718C408.289 424.754 407.353 442.149 404.619 449.928C401.885 457.708 398.711 468.882 398.711 472.919C398.711 476.956 404.619 494.038 404.619 494.038H415.481C415.481 494.038 411.445 474.148 411.445 472.295C411.445 470.442 417.041 453.947 417.041 453.947L417.353 494.644H474.233L473.628 455.8C473.628 455.8 478.582 471.653 478.582 474.442C478.582 477.231 476.747 495.579 476.747 495.579H487.536C487.536 495.579 492.82 475.396 492.508 468.24C492.196 461.084 487.004 438.406 486.306 431.543C485.609 424.681 489.719 420.975 482.27 416.314C474.82 411.654 457.72 408.865 453.995 408.553C450.113 408.629 446.247 409.084 442.454 409.911Z" fill="#FD6F00" stroke="#263238" stroke-width="0.607119" stroke-miterlimit="10"/>
<path d="M416.986 454.038L417.921 438.497L414.49 426.699" stroke="#263238" stroke-width="0.607119" stroke-linecap="round" stroke-linejoin="round"/>
<path d="M473.535 436.02V455.891" stroke="#263238" stroke-width="0.607119" stroke-linecap="round" stroke-linejoin="round"/>
<path d="M473.83 441.617L478.802 434.149" stroke="#263238" stroke-width="0.607119" stroke-linecap="round" stroke-linejoin="round"/>
<path d="M447.738 431.048L445.885 494.111" stroke="#263238" stroke-width="0.607119" stroke-linecap="round" stroke-linejoin="round"/>
<path d="M446.801 402.461C444.037 402.613 441.408 403.707 439.352 405.562C435.939 408.681 434.691 420.791 434.691 420.791C434.691 420.791 445.572 417.69 447.425 417.122C449.278 416.553 465.774 420.222 465.774 420.222C465.774 420.222 464.232 409.36 459.884 404.7C455.535 400.039 446.801 402.461 446.801 402.461Z" fill="#263238" stroke="#263238" stroke-width="0.607119" stroke-linecap="round" stroke-linejoin="round"/>
<path d="M442.453 392.516C442.453 392.516 444.949 396.186 444.949 407.195C444.949 418.204 446.178 429.562 447.737 431.048C449.297 432.534 455.811 416.369 455.811 409.03C455.935 404.176 457.105 399.407 459.242 395.048C459.242 395.048 451.462 389.764 447.426 389.14C446.323 388.968 445.197 389.221 444.274 389.848C443.351 390.474 442.7 391.428 442.453 392.516Z" fill="white" stroke="#263238" stroke-width="0.607119" stroke-linecap="round" stroke-linejoin="round"/>
<path d="M445.445 419.305C445.941 425.341 446.785 430.094 447.739 431.048C448.693 432.002 451.684 425.947 453.739 419.452C450.984 419.841 448.185 419.791 445.445 419.305Z" fill="#263238" stroke="#263238" stroke-width="0.607119" stroke-linecap="round" stroke-linejoin="round"/>
<path d="M461.407 362.7C461.407 362.7 463.241 363.324 466.691 360.204C470.14 357.085 468.526 351.195 467.003 352.443C466.03 353.237 465.188 354.178 464.507 355.232C463.905 353.414 462.796 351.805 461.31 350.596C459.825 349.387 458.025 348.627 456.122 348.406C449.608 347.783 441.829 356.792 441.829 356.792C441.829 356.792 427.554 367.36 429.095 375.746C430.636 384.131 438.728 391.58 442.453 392.516C446.177 393.452 453.021 386.626 451.774 380.718C450.526 374.81 449.608 366.039 451.774 365.177C454.935 364.171 458.152 363.344 461.407 362.7Z" fill="#263238" stroke="#263238" stroke-width="0.607119" stroke-linecap="round" stroke-linejoin="round"/>
<path d="M441.831 387.544C441.831 387.544 436.565 383.874 435.318 386.626C434.07 389.379 436.877 394.388 440.29 395.929C443.703 397.47 446.804 392.516 446.804 392.516C446.804 392.516 457.684 401.213 465.152 401.525C472.62 401.837 472.932 395.929 471.684 384.755C470.436 373.581 466.712 364.865 463.923 361.764C461.134 358.663 450.253 361.452 446.822 364.241C443.391 367.03 441.317 369.525 444.657 370.149C447.996 370.773 451.171 371.984 448.07 375.434C444.969 378.883 443.409 377.599 444.4 380.094C445.391 382.59 449.372 385.067 445.648 386.314L441.831 387.544Z" fill="white" stroke="#263238" stroke-width="0.607119" stroke-linecap="round" stroke-linejoin="round"/>
</g>
<mask id="mask3_1829_3044" style="mask-type:luminance" maskUnits="userSpaceOnUse" x="246" y="343" width="111" height="147">
<path d="M356.986 343.452H246.18V489.561H356.986V343.452Z" fill="white"/>
</mask>
<g mask="url(#mask3_1829_3044)">
<path d="M305.298 404.058C305.298 404.058 266.143 408.719 264.932 412.131C263.721 415.544 249.409 448.828 251.574 451.893C253.739 454.957 258.106 455.562 261.519 455.562C263.936 455.346 266.223 454.37 268.051 452.773L258.106 494.975H330.179L332.362 465.452C332.362 465.452 340.748 469.122 346.344 468.571C351.94 468.021 350.692 463.599 349.445 455.214C348.197 446.828 347.61 425.379 345.408 421.342C343.206 417.306 316.821 406.113 316.821 406.113L305.298 404.058Z" fill="#263238" stroke="#263238" stroke-width="0.607119" stroke-linecap="round" stroke-linejoin="round"/>
<path d="M332.949 454.662V435.397L334.49 431.672" stroke="white" stroke-width="0.607119" stroke-linecap="round" stroke-linejoin="round"/>
<path d="M270.182 438.498L273.301 425.452L272.677 422.663" stroke="white" stroke-width="0.607119" stroke-linecap="round" stroke-linejoin="round"/>
<path d="M278.363 496.296C278.363 496.296 284.253 470.81 287.06 454.975C289.868 439.14 301.556 404.058 301.556 404.058L319.592 409.031C319.592 409.031 307.464 444.443 304.363 459.672C301.262 474.901 298.657 496.479 298.657 496.479L278.363 496.296Z" fill="#FD6F00" stroke="#263238" stroke-width="0.607119" stroke-miterlimit="10"/>
<path d="M304.051 400.388C304.051 400.388 298.767 400.388 296.895 404.058C295.024 407.727 292.547 422.076 292.547 422.076C292.547 422.076 303.739 417.103 304.675 417.103C305.611 417.103 309.96 417.415 312.125 419.892C314.29 422.369 318.969 428.278 318.969 428.278C318.969 428.278 326.106 416.792 324.253 409.342C323.618 406.887 322.224 404.694 320.271 403.077C318.317 401.459 315.903 400.499 313.372 400.333L304.051 400.388Z" fill="#FD6F00" stroke="#263238" stroke-width="0.607119" stroke-miterlimit="10"/>
<path d="M302.217 392.205C302.217 392.205 301.593 413.966 302.217 420.168C302.841 426.369 303.776 427.929 303.776 427.929C303.776 427.929 309.061 419.232 310.602 416.131C312.143 413.03 316.822 409.599 319.006 406.81C321.189 404.021 322.675 393.452 322.675 393.452C322.675 393.452 314.602 399.672 310.253 398.113C307.176 396.752 304.434 394.735 302.217 392.205Z" fill="white" stroke="#263238" stroke-width="0.607119" stroke-linecap="round" stroke-linejoin="round"/>
<path d="M315.061 352.884C309.777 353.655 304.621 356.297 303.135 361.453C301.887 365.801 301.3 380.095 300.97 387.232C300.639 394.37 304.382 403.397 307.483 404.333C310.072 405.251 312.858 405.467 315.557 404.957C317.116 404.333 324.272 394.7 326.125 392.828C327.979 390.957 333.575 373.563 333.575 367.361C333.712 364.302 332.847 361.281 331.112 358.758C329.377 356.235 326.866 354.346 323.96 353.379C321.061 352.592 318.029 352.423 315.061 352.884Z" fill="white" stroke="#263238" stroke-width="0.607119" stroke-linecap="round" stroke-linejoin="round"/>
<path d="M330.454 382.04C330.454 382.04 335.426 377.673 334.124 383.269C333.724 384.941 332.961 386.505 331.889 387.849C330.817 389.194 329.463 390.286 327.922 391.049L330.454 382.04Z" fill="white" stroke="#263238" stroke-width="0.607119" stroke-linecap="round" stroke-linejoin="round"/>
<path d="M301.556 376.058C301.556 376.058 297.887 372.645 297.887 377.305C298.029 380.357 299.119 383.288 301.006 385.691L301.556 376.058Z" fill="white" stroke="#263238" stroke-width="0.607119" stroke-linecap="round" stroke-linejoin="round"/>
<path d="M330.456 382.04C332.068 377.287 333.109 372.359 333.557 367.361C333.694 364.302 332.829 361.281 331.094 358.758C329.359 356.235 326.848 354.346 323.942 353.379C321.044 352.592 318.012 352.423 315.043 352.884C309.759 353.655 304.603 356.297 303.117 361.453C302.161 366.595 301.603 371.803 301.447 377.03C303.025 375.801 306.31 372.792 305.612 369.214C304.677 364.554 302.805 362.388 306.218 360.205C309.631 358.022 313.686 361.141 319.282 363.012C324.878 364.884 330.456 362.388 332.016 363.93C333.575 365.471 327.043 372.021 327.979 374.498C328.915 376.975 331.08 379.783 330.456 381.966V382.04Z" fill="#263238" stroke="#263238" stroke-width="0.607119" stroke-linecap="round" stroke-linejoin="round"/>
<path d="M285.703 441.617C285.703 441.617 281.043 435.085 277.942 434.773C274.841 434.461 267.373 441.617 267.373 441.617H285.703Z" fill="white" stroke="#263238" stroke-width="0.607119" stroke-linecap="round" stroke-linejoin="round"/>
<path d="M315.227 442.223H319.594L320.511 450.938L315.85 449.69L315.227 442.223Z" fill="white" stroke="#263238" stroke-width="0.607119" stroke-linecap="round" stroke-linejoin="round"/>
<path d="M319.592 442.223L327.353 445.654L329.206 455.287L320.509 450.938L319.592 442.223Z" fill="white" stroke="#263238" stroke-width="0.607119" stroke-linecap="round" stroke-linejoin="round"/>
<path d="M344.419 459.103L299.998 441.708C297.437 442.967 295.035 444.525 292.842 446.351C291.546 447.653 290.588 449.253 290.053 451.011C290.053 451.011 311.172 466.24 321.429 470.901C331.685 475.561 346.603 477.121 349.08 474.571C351.557 472.02 350.915 462.461 349.392 460.901C348.568 460.052 347.629 459.323 346.603 458.736" fill="#263238"/>
<path d="M344.419 459.103L299.998 441.708C297.437 442.967 295.035 444.525 292.842 446.351C291.546 447.653 290.588 449.253 290.053 451.011C290.053 451.011 311.172 466.24 321.429 470.901C331.685 475.561 346.603 477.121 349.08 474.571C351.557 472.02 350.915 462.461 349.392 460.901C348.568 460.052 347.629 459.323 346.603 458.736" stroke="#263238" stroke-width="0.607119" stroke-linecap="round" stroke-linejoin="round"/>
<path d="M315.226 440.755L315.85 449.764C315.85 449.764 283.226 457.213 271.116 459.397C259.006 461.58 252.474 460.002 250.621 454.424C248.768 448.846 254.97 441.984 257.759 440.443C260.548 438.901 315.226 440.755 315.226 440.755Z" fill="#263238" stroke="#263238" stroke-width="0.607119" stroke-linecap="round" stroke-linejoin="round"/>
</g>
<mask id="mask4_1829_3044" style="mask-type:luminance" maskUnits="userSpaceOnUse" x="134" y="344" width="99" height="146">
<path d="M232.767 344.15H134.658V489.543H232.767V344.15Z" fill="white"/>
</mask>
<g mask="url(#mask4_1829_3044)">
<path d="M195.225 419.451C195.225 419.451 207.665 422.552 212.638 424.112C217.61 425.671 219.151 427.524 219.151 431.249C219.151 434.974 216.362 451.432 216.362 453.928V470.717C216.362 475.377 221.023 492.46 221.023 492.46H160.473C160.473 492.46 153.647 466.368 148.987 452.093C144.326 437.818 143.703 432.827 148.363 430.644C159.442 426.584 170.745 423.166 182.216 420.405C186.525 419.784 190.872 419.465 195.225 419.451Z" fill="#FD6F00" stroke="#263238" stroke-width="0.607119" stroke-miterlimit="10"/>
<path d="M213.261 439.947C213.261 439.947 216.931 457.048 215.738 463.249C214.546 469.451 206.105 493.084 206.105 493.084" stroke="#263238" stroke-width="0.607119" stroke-linecap="round" stroke-linejoin="round"/>
<path d="M148.326 430.625C148.326 430.625 142.822 431.561 144.29 438.717C145.758 445.873 138.693 492.129 138.693 492.129H152.363C152.363 492.129 161.684 467.579 163.225 461.689C164.766 455.8 166.033 451.121 163.225 446.148" fill="#FD6F00"/>
<path d="M148.326 430.625C148.326 430.625 142.822 431.561 144.29 438.717C145.758 445.873 138.693 492.129 138.693 492.129H152.363C152.363 492.129 161.684 467.579 163.225 461.689C164.766 455.8 166.033 451.121 163.225 446.148" stroke="#263238" stroke-width="0.607119" stroke-miterlimit="10"/>
<path d="M206.217 389.195L208.253 452.479H189.887V394.644L206.217 389.195Z" fill="#263238" stroke="#263238" stroke-width="0.607119" stroke-linecap="round" stroke-linejoin="round"/>
<path d="M182.491 434.68C182.491 434.68 187.775 458.533 189.958 465.744C192.142 472.955 192.436 489.597 191.793 491.836C191.151 494.074 199.555 491.836 199.555 491.836C199.555 491.836 201.738 475.322 202.986 465.744C204.234 456.166 200.49 438.093 200.49 438.093L196.454 422.24L181.225 425.048L182.491 434.68Z" fill="white" stroke="#263238" stroke-width="0.607119" stroke-linecap="round" stroke-linejoin="round"/>
<path d="M195.793 408.571C194.926 413.516 195.032 418.583 196.104 423.488C197.939 430.332 202.948 442.754 198.6 446.167C194.251 449.58 188.343 447.726 185.242 441.506C182.141 435.286 179.334 419.763 179.334 407.03C179.334 394.296 180.582 392.112 184.93 392.112C189.279 392.112 195.793 408.571 195.793 408.571Z" fill="white" stroke="#263238" stroke-width="0.607119" stroke-linecap="round" stroke-linejoin="round"/>
<path d="M186.84 402.681C184.046 405.11 180.76 406.906 177.207 407.947C172.546 408.883 170.069 396.461 169.445 384.094C168.822 371.727 171.941 364.828 178.454 361.727C184.968 358.626 200.821 360.168 207.041 362.645C213.261 365.122 220.711 369.177 220.711 375.69C220.711 382.204 212.307 387.543 209.83 389.011C207.353 390.479 201.445 392.681 197.72 396.461C194.502 399.179 190.815 401.287 186.84 402.681Z" fill="#263238" stroke="#263238" stroke-width="0.607119" stroke-linecap="round" stroke-linejoin="round"/>
<path d="M186.84 402.681C186.84 402.681 190.51 412.002 197.409 412.296C204.308 412.589 212.087 396.773 212.326 389.929C212.564 383.085 205.482 371.287 205.482 371.287C205.482 371.287 193.372 398.938 186.84 402.681Z" fill="white" stroke="#263238" stroke-width="0.607119" stroke-linecap="round" stroke-linejoin="round"/>
<path d="M184.987 388.699L185.592 455.8H164.785L169.446 377.819" fill="#263238"/>
<path d="M184.987 388.699L185.592 455.8H164.785L169.446 377.819" stroke="#263238" stroke-width="0.607119" stroke-linecap="round" stroke-linejoin="round"/>
</g>
</svg>
