<svg width="480" height="557" viewBox="0 0 480 557" fill="none" xmlns="http://www.w3.org/2000/svg">
<path d="M239.815 556.309C372.015 556.309 479.184 495.429 479.184 420.328C479.184 345.228 372.015 284.348 239.815 284.348C107.615 284.348 0.445312 345.228 0.445312 420.328C0.445312 495.429 107.615 556.309 239.815 556.309Z" fill="#F5F5F5"/>
<path d="M339.425 506.067L160.745 402.897C159.173 401.992 157.868 400.688 156.96 399.117C156.052 397.547 155.574 395.765 155.574 393.951C155.574 392.136 156.052 390.354 156.96 388.784C157.868 387.213 159.173 385.909 160.745 385.004L178.371 373.889C181.414 372.136 184.863 371.214 188.375 371.214C191.886 371.214 195.336 372.136 198.378 373.889L377.082 477.071C378.654 477.976 379.96 479.28 380.867 480.851C381.775 482.421 382.253 484.203 382.253 486.018C382.253 487.832 381.775 489.614 380.867 491.184C379.96 492.755 378.654 494.059 377.082 494.964L359.456 506.067C356.412 507.829 352.957 508.757 349.44 508.757C345.923 508.757 342.469 507.829 339.425 506.067Z" fill="#E0E0E0"/>
<path d="M67.7421 412.008C89.1571 412.008 106.517 402.039 106.517 389.741C106.517 377.444 89.1571 367.475 67.7421 367.475C46.3271 367.475 28.9668 377.444 28.9668 389.741C28.9668 402.039 46.3271 412.008 67.7421 412.008Z" fill="#E6E6E6"/>
<path d="M402.787 417.11L419.794 426.889C419.794 426.889 411.109 399.593 415.737 372.079C417.486 361.68 421.24 356.518 422.552 353.736C423.864 350.954 434.031 333.765 424.981 325.893C415.931 318.022 394.879 333.85 396.021 376.209C396.54 390.074 398.814 403.817 402.787 417.11Z" fill="#FD6F00"/>
<path opacity="0.5" d="M402.787 417.11L419.794 426.889C419.794 426.889 411.109 399.593 415.737 372.079C417.486 361.68 421.24 356.518 422.552 353.736C423.864 350.954 434.031 333.765 424.981 325.893C415.931 318.022 394.879 333.85 396.021 376.209C396.54 390.074 398.814 403.817 402.787 417.11Z" fill="black"/>
<path d="M410.697 422.26C410.573 422.263 410.451 422.227 410.349 422.157C410.247 422.088 410.169 421.988 410.126 421.872C410.065 421.689 403.566 403.93 403.772 375.383C403.979 346.836 418.981 331.335 419.127 331.189C419.183 331.132 419.251 331.087 419.325 331.056C419.399 331.026 419.478 331.01 419.558 331.01C419.638 331.01 419.718 331.026 419.792 331.056C419.866 331.087 419.933 331.132 419.99 331.189C420.046 331.246 420.092 331.313 420.122 331.387C420.153 331.461 420.169 331.54 420.169 331.621C420.169 331.701 420.153 331.78 420.122 331.854C420.092 331.928 420.046 331.995 419.99 332.052C419.844 332.198 405.194 347.236 404.987 375.395C404.781 403.553 411.195 421.289 411.268 421.459C411.322 421.61 411.315 421.777 411.246 421.923C411.178 422.069 411.054 422.181 410.903 422.236C410.836 422.257 410.766 422.265 410.697 422.26Z" fill="white"/>
<path d="M409.881 421.289L433.132 434.652C435.555 436.084 438.428 436.55 441.179 435.958C443.93 435.366 446.357 433.759 447.976 431.457C449.515 429.062 450.165 426.203 449.811 423.378C448.693 411.304 443.445 408.522 449.871 403.141C456.297 397.759 457.974 397.383 457.609 392.208C457.245 387.033 453.71 384.773 452.034 382.732C450.357 380.692 445.717 376.416 448.875 370.099C452.034 363.782 456.346 357.672 449.811 354.878C445.911 353.202 439.412 355.437 435.136 360.077C430.86 364.717 427.337 368.058 423.244 369.176C419.15 370.293 410.622 370.475 410.987 377.533C411.351 384.591 413.222 387.008 411.546 390.155C408.387 396.034 394.648 399.375 409.881 421.289Z" fill="#FD6F00"/>
<path d="M421.373 428.48C421.221 428.475 421.076 428.416 420.965 428.314C420.853 428.211 420.783 428.072 420.765 427.921C420.765 427.508 417.194 385.818 445.862 358.072C445.98 357.975 446.131 357.926 446.284 357.935C446.437 357.944 446.581 358.01 446.687 358.121C446.793 358.231 446.854 358.378 446.856 358.531C446.858 358.685 446.803 358.833 446.7 358.947C418.445 386.291 421.943 427.399 421.98 427.812C421.993 427.971 421.944 428.13 421.841 428.252C421.739 428.375 421.592 428.453 421.433 428.468L421.373 428.48Z" fill="white"/>
<path d="M425.977 392.596C425.824 392.596 425.677 392.539 425.564 392.435C425.451 392.332 425.382 392.189 425.37 392.037C425.115 388.806 424.205 385.661 422.695 382.793C421.185 379.926 419.107 377.396 416.587 375.358C416.521 375.312 416.465 375.254 416.422 375.186C416.379 375.118 416.35 375.043 416.337 374.963C416.323 374.884 416.326 374.803 416.343 374.725C416.361 374.647 416.395 374.573 416.441 374.508C416.486 374.443 416.544 374.387 416.61 374.344C416.677 374.301 416.752 374.272 416.83 374.259C416.908 374.245 416.988 374.247 417.065 374.265C417.142 374.283 417.215 374.316 417.279 374.362C419.965 376.492 422.179 379.156 423.78 382.186C425.382 385.216 426.337 388.546 426.584 391.964C426.598 392.127 426.547 392.288 426.442 392.413C426.338 392.538 426.188 392.617 426.026 392.632L425.977 392.596Z" fill="white"/>
<path d="M423.997 399.751C423.85 399.752 423.708 399.701 423.596 399.605C423.475 399.498 423.402 399.347 423.39 399.186C423.379 399.025 423.431 398.866 423.535 398.743C423.827 398.402 431.006 390.482 447.83 392.584C447.99 392.605 448.134 392.688 448.232 392.816C448.33 392.943 448.374 393.105 448.353 393.264C448.332 393.424 448.249 393.57 448.121 393.67C447.994 393.77 447.833 393.816 447.673 393.799C431.516 391.77 424.507 399.471 424.434 399.544C424.379 399.606 424.312 399.657 424.236 399.692C424.161 399.728 424.08 399.748 423.997 399.751Z" fill="white"/>
<path d="M333.982 493.737L176.84 403.006C165.749 396.604 156.76 379.427 156.76 364.644V28.1538C156.76 13.3701 165.749 6.57959 176.84 12.9814L333.982 103.712C345.073 110.114 354.062 127.291 354.062 142.074V478.564C354.062 493.336 345.073 500.138 333.982 493.737Z" fill="#455A64"/>
<path d="M352.081 93.1317L194.927 2.40094C190.19 -0.332285 185.841 -0.648125 182.403 1.02825C181.982 1.23902 181.576 1.47849 181.188 1.74496L163.574 11.9854C167.121 9.85959 171.762 10.0175 176.852 12.9572L333.994 103.688C345.084 110.09 354.074 127.267 354.074 142.05V478.54C354.074 486.363 351.559 491.902 347.55 494.526L364.934 484.407C369.368 482.051 372.222 476.281 372.222 468.008V131.518C372.222 116.71 363.172 99.5335 352.081 93.1317Z" fill="#37474F"/>
<path d="M354.062 142.051V478.54C354.062 486.363 351.548 491.903 347.539 494.527L364.935 484.408C369.368 482.051 372.223 476.281 372.223 468.008V131.519L354.123 142.026L354.062 142.051Z" fill="#263238"/>
<path d="M372.163 157.623L354.062 168.07V176.233L372.163 165.774V157.623Z" fill="#37474F"/>
<path d="M364.23 211.911C362.615 212.847 361.303 211.851 361.303 209.701V192.147C361.319 191.05 361.593 189.972 362.101 188.999C362.609 188.027 363.339 187.187 364.23 186.547C365.846 185.612 367.158 186.547 367.158 188.758V206.311C367.141 207.409 366.868 208.487 366.36 209.459C365.851 210.432 365.122 211.272 364.23 211.911Z" fill="#37474F"/>
<path d="M361.289 209.749V192.147C361.305 191.05 361.579 189.971 362.087 188.999C362.596 188.026 363.325 187.187 364.216 186.547C364.483 186.36 364.793 186.247 365.117 186.217C365.441 186.187 365.767 186.242 366.063 186.377L363.864 185.247C363.563 185.102 363.23 185.04 362.897 185.065C362.564 185.091 362.244 185.204 361.969 185.393C361.077 186.033 360.346 186.872 359.836 187.844C359.325 188.817 359.049 189.895 359.029 190.993V208.534C358.984 208.977 359.051 209.425 359.226 209.835C359.4 210.245 359.675 210.604 360.026 210.879L362.321 212.093C361.956 211.83 361.668 211.474 361.486 211.062C361.304 210.649 361.236 210.196 361.289 209.749Z" fill="#455A64"/>
<path d="M364.23 254.392C362.615 255.327 361.303 254.392 361.303 252.181V234.628C361.32 233.53 361.594 232.453 362.102 231.48C362.611 230.508 363.339 229.668 364.23 229.027C365.846 228.092 367.158 229.027 367.158 231.25V248.792C367.143 249.889 366.871 250.968 366.362 251.941C365.854 252.914 365.123 253.753 364.23 254.392Z" fill="#37474F"/>
<path d="M361.29 252.181V234.628C361.307 233.531 361.581 232.453 362.089 231.48C362.597 230.508 363.326 229.668 364.217 229.028C364.485 228.845 364.795 228.733 365.118 228.703C365.441 228.673 365.767 228.726 366.064 228.858L363.865 227.716C363.566 227.565 363.231 227.498 362.897 227.524C362.563 227.55 362.242 227.666 361.97 227.861C361.075 228.499 360.343 229.338 359.832 230.311C359.322 231.284 359.047 232.363 359.03 233.462V251.051C358.983 251.495 359.05 251.942 359.225 252.353C359.399 252.763 359.675 253.122 360.026 253.396L362.322 254.611C361.942 254.341 361.644 253.971 361.461 253.542C361.279 253.113 361.22 252.642 361.29 252.181Z" fill="#455A64"/>
<path d="M328.49 113.15L174.069 23.9625C173.425 23.5917 172.695 23.3959 171.951 23.3945C171.208 23.3932 170.477 23.5862 169.831 23.9546C169.185 24.3229 168.647 24.8538 168.269 25.4944C167.892 26.1351 167.689 26.8633 167.68 27.6068V364.643C167.68 375.892 175.661 389.704 185.403 395.328L336.034 482.342C336.748 482.753 337.558 482.969 338.382 482.968C339.207 482.967 340.016 482.75 340.73 482.338C341.443 481.926 342.036 481.333 342.449 480.619C342.861 479.906 343.079 479.096 343.08 478.272V138.454C343.14 129.173 336.556 117.791 328.49 113.15Z" fill="#FD6F00"/>
<path opacity="0.9" d="M328.49 113.15L174.069 23.9625C173.425 23.5917 172.695 23.3959 171.951 23.3945C171.208 23.3932 170.477 23.5862 169.831 23.9546C169.185 24.3229 168.647 24.8538 168.269 25.4944C167.892 26.1351 167.689 26.8633 167.68 27.6068V364.643C167.68 375.892 175.661 389.704 185.403 395.328L336.034 482.342C336.748 482.753 337.558 482.969 338.382 482.968C339.207 482.967 340.016 482.75 340.73 482.338C341.443 481.926 342.036 481.333 342.449 480.619C342.861 479.906 343.079 479.096 343.08 478.272V138.454C343.14 129.173 336.556 117.791 328.49 113.15Z" fill="white"/>
<path d="M220.256 47.25L222.649 57.3204L273.839 86.8392L282.683 82.1259L220.256 47.25Z" fill="#455A64"/>
<path d="M235.307 56.9801C235.307 58.6564 234.092 59.3246 232.683 58.4985C231.927 57.9963 231.299 57.3236 230.849 56.5346C230.4 55.7456 230.142 54.8622 230.096 53.9553C230.096 52.2911 231.31 51.6108 232.72 52.449C233.476 52.9486 234.104 53.619 234.553 54.4061C235.003 55.1932 235.261 56.0749 235.307 56.9801Z" fill="#263238"/>
<path d="M269.794 78.2996C269.514 78.2974 269.239 78.2265 268.992 78.0931L242.85 63.5159C242.481 63.2992 242.212 62.9467 242.099 62.5338C241.986 62.1208 242.039 61.6802 242.247 61.3059C242.455 60.9317 242.801 60.6535 243.211 60.5308C243.621 60.408 244.063 60.4505 244.442 60.6491L270.596 75.2263C270.914 75.403 271.164 75.6803 271.307 76.0148C271.45 76.3492 271.478 76.7217 271.386 77.0737C271.294 77.4256 271.088 77.7371 270.8 77.959C270.511 78.1809 270.158 78.3008 269.794 78.2996Z" fill="#263238"/>
<path d="M200.067 94.1039C198.475 93.1807 197.321 93.9824 197.321 96.0111C197.321 97.0255 197.572 98.0243 198.051 98.9186C198.53 99.8129 199.222 100.575 200.067 101.137C200.519 101.412 201.038 101.557 201.567 101.557C202.096 101.557 202.615 101.412 203.067 101.137L205.606 105.729C204.713 106.222 203.7 106.457 202.681 106.408C201.662 106.358 200.677 106.027 199.836 105.45C197.773 104.188 196.054 102.437 194.829 100.352C193.604 98.2672 192.912 95.9125 192.814 93.4965C192.814 88.9897 195.839 87.4227 200.006 89.8522C202.359 91.3674 204.286 93.458 205.606 95.926L203.067 97.9425C202.441 96.4102 201.402 95.0814 200.067 94.1039Z" fill="#FD6F00"/>
<path d="M220.22 109.325C220.22 113.868 217.146 115.399 212.931 112.969C210.81 111.701 209.034 109.929 207.763 107.81C206.491 105.69 205.763 103.29 205.643 100.821C205.643 96.2782 208.716 94.7476 212.931 97.1771C215.058 98.4392 216.837 100.21 218.109 102.331C219.382 104.451 220.107 106.854 220.22 109.325ZM210.149 103.53C210.171 104.573 210.439 105.596 210.934 106.515C211.428 107.434 212.133 108.222 212.992 108.815C214.498 109.689 215.713 108.815 215.713 106.749C215.709 105.73 215.459 104.726 214.986 103.824C214.512 102.921 213.828 102.145 212.992 101.562C211.461 100.676 210.149 101.429 210.149 103.53Z" fill="#FD6F00"/>
<path d="M225.115 104.501L230.363 115.434V107.563L234.335 109.858V125.177L230.691 123.063L225.467 112.227V120.05L221.471 117.742V102.388L225.115 104.501Z" fill="#FD6F00"/>
<path d="M247.32 117.317V121.326L243.53 119.14V130.461L239.145 127.922V116.601L235.379 114.426V110.43L247.32 117.317Z" fill="#FD6F00"/>
<path d="M255.872 135.418L250.892 132.539L250.211 134.312L245.717 131.713L251.317 119.626L255.824 122.226L261.217 140.666L256.54 137.969L255.872 135.418ZM254.791 131.166L253.431 125.931L252.034 129.575L254.791 131.166Z" fill="#FD6F00"/>
<path d="M268.178 133.425C266.587 132.514 265.433 133.304 265.433 135.344C265.435 136.359 265.686 137.357 266.165 138.251C266.644 139.144 267.335 139.907 268.178 140.471C268.633 140.743 269.154 140.886 269.684 140.886C270.215 140.886 270.735 140.743 271.191 140.471L273.729 145.063C272.832 145.55 271.819 145.781 270.799 145.732C269.78 145.683 268.793 145.355 267.947 144.783C265.883 143.52 264.162 141.767 262.937 139.68C261.713 137.593 261.022 135.236 260.926 132.818C260.926 128.311 263.963 126.744 268.117 129.173C270.467 130.696 272.397 132.785 273.729 135.247L271.191 137.252C270.551 135.727 269.509 134.405 268.178 133.425Z" fill="#FD6F00"/>
<path d="M285.707 139.487V143.484L281.917 141.297V152.655L277.531 150.117V138.795L273.766 136.621V132.624L285.707 139.487Z" fill="#FD6F00"/>
<path d="M298.669 158.292C299.75 158.911 300.576 158.425 300.576 156.907V148.076L304.973 150.602V159.434C304.973 163.503 302.544 164.718 298.657 162.495C296.784 161.455 295.21 159.951 294.084 158.129C292.959 156.306 292.321 154.224 292.23 152.084V143.253L296.628 145.792V154.623C296.645 155.354 296.84 156.07 297.195 156.71C297.551 157.349 298.056 157.892 298.669 158.292Z" fill="#FD6F00"/>
<path d="M312.056 158.341C311.558 158.061 311.242 158.049 311.242 158.511C311.242 160.43 318.105 163.2 318.105 168.751C318.105 172.153 315.518 172.165 312.529 170.44C309.903 168.83 307.64 166.691 305.885 164.159L307.513 161.293C308.848 163.361 310.563 165.158 312.566 166.589C313.21 166.965 313.623 166.965 313.623 166.419C313.623 164.427 306.747 161.778 306.747 156.397C306.747 153.336 308.982 152.753 312.432 154.696C314.655 156.041 316.611 157.782 318.202 159.835L316.611 162.775C315.297 161.1 313.765 159.609 312.056 158.341Z" fill="#FD6F00"/>
<path d="M177.97 169.589C182.899 163.535 185.38 155.854 184.924 148.061C184.468 140.268 181.107 132.929 175.506 127.492C169.904 122.055 162.468 118.914 154.665 118.691C146.862 118.467 139.258 121.175 133.354 126.282C127.45 131.389 123.674 138.524 122.772 146.278C121.869 154.032 123.906 161.843 128.48 168.169C133.053 174.495 139.832 178.878 147.478 180.451C155.124 182.025 163.082 180.677 169.783 176.671L184.991 183.279L177.97 169.589Z" fill="#FD6F00"/>
<path opacity="0.4" d="M177.97 169.589C182.899 163.535 185.38 155.854 184.924 148.061C184.468 140.268 181.107 132.929 175.506 127.492C169.904 122.055 162.468 118.914 154.665 118.691C146.862 118.467 139.258 121.175 133.354 126.282C127.45 131.389 123.674 138.524 122.772 146.278C121.869 154.032 123.906 161.843 128.48 168.169C133.053 174.495 139.832 178.878 147.478 180.451C155.124 182.025 163.082 180.677 169.783 176.671L184.991 183.279L177.97 169.589Z" fill="black"/>
<path d="M142.207 148.209C142.207 147.736 141.867 147.468 141.247 147.468C139.81 147.657 138.468 148.29 137.409 149.278L135.684 145.926C137.499 144.559 139.693 143.787 141.964 143.715C144.879 143.715 147.09 145.245 147.09 147.529C147.09 149.157 145.875 150.724 144.321 152.291L142.146 154.441H147.285V158.013H136.242V155.085L141.162 149.995C141.692 149.527 142.058 148.901 142.207 148.209Z" fill="white"/>
<path d="M156.274 143.921L152.922 151.963H154.294V149.254H158.522V151.963H160.125V155.279H158.522V158.012H154.294V155.279H148.281V152.266L151.926 143.921H156.274Z" fill="white"/>
<path d="M173.172 151.003V158.012H168.653V152.303C168.679 152.117 168.665 151.928 168.612 151.748C168.558 151.568 168.467 151.401 168.344 151.259C168.22 151.118 168.068 151.004 167.897 150.927C167.726 150.849 167.541 150.809 167.353 150.809C166.466 150.809 165.908 151.501 165.908 152.57V158.012H161.389V143.119H165.908V148.598C166.261 148.039 166.754 147.582 167.337 147.271C167.921 146.96 168.575 146.806 169.236 146.824C169.778 146.81 170.316 146.911 170.816 147.119C171.316 147.328 171.767 147.639 172.138 148.033C172.51 148.428 172.794 148.896 172.972 149.408C173.15 149.92 173.218 150.463 173.172 151.003Z" fill="white"/>
<path d="M320.524 263.879V414.814C320.526 416.521 320.079 418.198 319.227 419.678C318.375 421.157 317.148 422.386 315.671 423.24C314.193 424.095 312.516 424.545 310.809 424.546C309.102 424.547 307.425 424.098 305.946 423.244L224.654 376.305L210.247 367.996C205.286 365.128 201.165 361.007 198.296 356.047C195.426 351.086 193.909 345.46 193.896 339.729V188.782C193.894 187.075 194.341 185.398 195.193 183.918C196.045 182.439 197.272 181.21 198.749 180.355C200.227 179.501 201.904 179.05 203.611 179.05C205.318 179.049 206.995 179.498 208.474 180.352L304.197 235.611C309.16 238.475 313.282 242.596 316.148 247.558C319.014 252.52 320.523 258.149 320.524 263.879Z" fill="#FD6F00"/>
<path opacity="0.5" d="M320.524 263.879V414.814C320.526 416.521 320.079 418.198 319.227 419.678C318.375 421.157 317.148 422.386 315.671 423.24C314.193 424.095 312.516 424.545 310.809 424.546C309.102 424.547 307.425 424.098 305.946 423.244L224.654 376.305L210.247 367.996C205.286 365.128 201.165 361.007 198.296 356.047C195.426 351.086 193.909 345.46 193.896 339.729V188.782C193.894 187.075 194.341 185.398 195.193 183.918C196.045 182.439 197.272 181.21 198.749 180.355C200.227 179.501 201.904 179.05 203.611 179.05C205.318 179.049 206.995 179.498 208.474 180.352L304.197 235.611C309.16 238.475 313.282 242.596 316.148 247.558C319.014 252.52 320.523 258.149 320.524 263.879Z" fill="white"/>
<path d="M273.694 353.188C273.694 353.188 288.915 378.431 277.921 406.893L224.617 376.305L273.694 353.188Z" fill="#263238"/>
<path d="M297.969 239.774C299.121 230.419 292.471 221.901 283.115 220.749C273.76 219.597 265.242 226.247 264.09 235.602C262.938 244.958 269.588 253.476 278.943 254.628C288.299 255.78 296.817 249.13 297.969 239.774Z" fill="#263238"/>
<path d="M281.115 189.815C281.115 189.815 286.351 181.311 287.954 181.931C289.558 182.55 286.91 190.653 286.91 190.653C286.91 190.653 294.83 192.305 293.36 194.297C291.89 196.289 282.209 195.815 282.209 195.815L281.115 189.815Z" fill="#263238"/>
<path d="M284.759 211.729C281.115 239.109 258.035 239.109 258.035 239.109L209.687 217.827C209.687 217.827 206.043 214.632 204.925 207.295C204.496 204.289 204.496 201.238 204.925 198.233C204.925 198.233 204.925 198.172 204.925 198.148C206.468 186.632 215.081 174.253 233.836 170.451C237.947 169.621 242.131 169.214 246.324 169.236C248.353 169.229 250.38 169.33 252.398 169.54C266.975 170.973 277.191 177.776 282.063 188.357C283.158 190.745 283.974 193.252 284.492 195.827C285.481 201.074 285.571 206.451 284.759 211.729Z" fill="#263238"/>
<path d="M168.689 264.693C168.689 264.693 151.524 264.098 144.916 280.825C144.916 280.825 152.205 285.745 161.765 280.825C171.325 275.905 168.689 264.693 168.689 264.693Z" fill="#FD6F00"/>
<path opacity="0.5" d="M168.689 264.693C168.689 264.693 151.524 264.098 144.916 280.825C144.916 280.825 152.205 285.745 161.765 280.825C171.325 275.905 168.689 264.693 168.689 264.693Z" fill="black"/>
<path d="M168.204 272.747C168.204 272.747 163.345 251.634 160.781 251.379C158.218 251.124 157.72 257.818 157.927 261.595L151.853 248.525C151.66 248.118 151.386 247.756 151.048 247.46C150.71 247.163 150.315 246.94 149.887 246.802C149.459 246.664 149.008 246.616 148.56 246.659C148.113 246.703 147.679 246.837 147.285 247.055C141.212 250.395 130.558 260.551 153.019 285.66L168.204 272.747Z" fill="#945959"/>
<path d="M230.399 258.145L226.755 257.671C223.082 257.184 219.346 257.684 215.93 259.118C212.515 260.553 209.542 262.871 207.319 265.835L185.635 294.697L168.628 264.693C168.628 264.693 166.588 285.101 144.855 280.825L168.191 320.098C169.668 322.584 171.723 324.677 174.183 326.198C176.642 327.72 179.433 328.624 182.317 328.835C185.201 329.046 188.093 328.558 190.748 327.411C193.403 326.264 195.741 324.493 197.564 322.248L217.535 297.698L230.399 258.145Z" fill="#FD6F00"/>
<path d="M276.682 325.504C271.823 337.822 271.289 340.227 274.253 346.386C276.317 350.935 277.944 355.669 279.112 360.526C279.112 360.526 256.59 385.769 224.533 376.318L210.125 368.009C207.129 366.281 204.43 364.083 202.132 361.498L206.518 328.796C206.738 327.075 206.564 325.326 206.007 323.682L201.403 310.186C199.157 303.594 198.822 296.501 200.439 289.727C202.056 282.954 205.557 276.776 210.538 271.909L226.015 256.785L266.661 261.984L272.734 263.721C276.711 264.871 280.139 267.418 282.388 270.892C284.637 274.367 285.558 278.537 284.979 282.635C282.987 296.97 279.731 317.766 276.682 325.504Z" fill="#FD6F00"/>
<path opacity="0.5" d="M276.682 325.504C271.823 337.822 271.289 340.227 274.253 346.386C276.317 350.935 277.944 355.669 279.112 360.526C279.112 360.526 256.59 385.769 224.533 376.318L210.125 368.009C207.129 366.281 204.43 364.083 202.132 361.498L206.518 328.796C206.738 327.075 206.564 325.326 206.007 323.682L201.403 310.186C199.157 303.594 198.822 296.501 200.439 289.727C202.056 282.954 205.557 276.776 210.538 271.909L226.015 256.785L266.661 261.984L272.734 263.721C276.711 264.871 280.139 267.418 282.388 270.892C284.637 274.367 285.558 278.537 284.979 282.635C282.987 296.97 279.731 317.766 276.682 325.504Z" fill="black"/>
<path d="M252.169 288.709L244.03 281.773C243.168 281.035 242.129 280.535 241.014 280.322C239.9 280.109 238.75 280.191 237.677 280.558L227.837 283.947L226.513 278.432C226.306 277.574 225.928 276.767 225.401 276.059C224.874 275.351 224.209 274.757 223.446 274.313C222.683 273.87 221.838 273.585 220.962 273.476C220.087 273.368 219.198 273.438 218.35 273.682L214.086 274.897L221.302 261.073C223.658 256.571 227.287 252.861 231.736 250.407L234.567 248.853L257.951 250.067C257.951 250.067 266.661 253.712 266.661 261.911L252.169 288.636" fill="#FD6F00"/>
<path d="M258.047 260.429L234.602 278.7V220.524H258.047V260.429Z" fill="#945959"/>
<path d="M234.967 255.631L227.836 283.996L257.95 260.429L234.967 255.631Z" fill="#945959"/>
<path d="M234.602 251.416C239.815 249.48 244.581 246.505 248.609 242.671C252.637 238.837 255.844 234.224 258.035 229.113V220.524H234.59L234.602 251.416Z" fill="#703838"/>
<path d="M239.656 177.412C230.764 177.412 211.862 182.368 209.675 205.643C207.489 228.918 209.602 246.945 221.604 248.694C233.606 250.444 261.497 241.734 265.239 211.608C268.98 181.482 248.317 177.412 239.656 177.412Z" fill="#945959"/>
<path d="M225.663 215.495V229.21L217.621 226.744L225.663 215.495Z" fill="#703838"/>
<path d="M234.603 220.658C236.146 220.658 237.397 219.407 237.397 217.864C237.397 216.321 236.146 215.07 234.603 215.07C233.059 215.07 231.809 216.321 231.809 217.864C231.809 219.407 233.059 220.658 234.603 220.658Z" fill="#263238"/>
<path d="M219.006 215.92C219.003 216.472 218.838 217.011 218.529 217.469C218.221 217.927 217.783 218.283 217.273 218.493C216.762 218.703 216.201 218.756 215.659 218.647C215.118 218.538 214.622 218.271 214.232 217.88C213.842 217.488 213.578 216.99 213.471 216.449C213.364 215.907 213.42 215.346 213.632 214.836C213.844 214.326 214.202 213.891 214.661 213.584C215.12 213.278 215.66 213.114 216.212 213.114C216.58 213.114 216.944 213.187 217.284 213.328C217.624 213.469 217.932 213.676 218.192 213.937C218.451 214.198 218.657 214.507 218.797 214.847C218.936 215.188 219.007 215.552 219.006 215.92Z" fill="#263238"/>
<path d="M212.798 210.089L218.264 206.846C218.264 206.846 216.175 204.671 214.085 205.971C211.996 207.271 212.798 210.089 212.798 210.089Z" fill="#263238"/>
<path d="M221.885 234.773C224.547 234.968 227.197 234.257 229.404 232.757C229.404 232.757 229.926 236.729 226.598 237.482C223.27 238.235 221.885 234.773 221.885 234.773Z" fill="#703838"/>
<path d="M217.109 185.332C217.109 185.332 220.45 217.462 264.145 218.471C264.145 218.471 277.35 186.534 251.256 176.16C225.163 165.786 217.109 185.332 217.109 185.332Z" fill="#263238"/>
<path d="M277.01 213.661L271.641 210.551C269.6 209.337 266.782 209.507 263.66 211.304C257.465 214.876 252.436 223.586 252.436 230.741C252.436 234.324 253.65 236.814 255.74 238.029L261.012 241.066L261.315 241.236L261.498 241.346C263.49 242.317 266.15 242.087 269.078 240.398C275.273 236.754 280.302 228.117 280.302 220.962C280.266 217.342 279.015 214.839 277.01 213.661Z" fill="#FD6F00"/>
<path d="M276.969 231.957C281.35 224.369 281.35 216.167 276.969 213.638C272.588 211.109 265.485 215.21 261.104 222.798C256.723 230.386 256.723 238.587 261.104 241.117C265.485 243.646 272.588 239.545 276.969 231.957Z" fill="#FD6F00"/>
<path opacity="0.5" d="M276.969 231.957C281.35 224.369 281.35 216.167 276.969 213.638C272.588 211.109 265.485 215.21 261.104 222.798C256.723 230.386 256.723 238.587 261.104 241.117C265.485 243.646 272.588 239.545 276.969 231.957Z" fill="black"/>
<path d="M279.161 220.402L275.516 218.277C274.132 217.45 272.2 217.56 270.062 218.787C267.829 220.246 265.97 222.211 264.636 224.522C263.303 226.832 262.531 229.424 262.385 232.088C262.385 234.518 263.247 236.255 264.644 237.057L268.289 239.134C268.353 239.181 268.422 239.222 268.495 239.255L268.617 239.328C269.471 239.652 270.391 239.762 271.298 239.648C272.204 239.533 273.069 239.198 273.816 238.672C276.047 237.214 277.905 235.251 279.239 232.943C280.572 230.634 281.345 228.045 281.493 225.383C281.396 222.917 280.546 221.204 279.161 220.402Z" fill="#FD6F00"/>
<path d="M281.396 225.359C281.248 228.021 280.475 230.61 279.142 232.919C277.808 235.227 275.951 237.19 273.719 238.648C269.467 241.078 266.029 239.11 266.029 234.215C266.173 231.55 266.945 228.958 268.281 226.648C269.618 224.339 271.481 222.378 273.719 220.925C277.958 218.471 281.396 220.451 281.396 225.359Z" fill="#FD6F00"/>
<path opacity="0.3" d="M281.396 225.359C281.248 228.021 280.475 230.61 279.142 232.919C277.808 235.227 275.951 237.19 273.719 238.648C269.467 241.078 266.029 239.11 266.029 234.215C266.173 231.55 266.945 228.958 268.281 226.648C269.618 224.339 271.481 222.378 273.719 220.925C277.958 218.471 281.396 220.451 281.396 225.359Z" fill="black"/>
<path d="M260.33 171.144C256.848 168.454 252.583 166.974 248.183 166.929H247.102C242.646 166.881 238.197 167.288 233.824 168.143C234.626 168.143 235.428 168.143 236.254 168.143H233.824V170.403H236.084C243.871 170.668 251.25 173.95 256.661 179.556C262.072 185.162 265.091 192.652 265.08 200.444V210.004C265.08 210.382 265.159 210.756 265.312 211.101C265.466 211.447 265.69 211.756 265.971 212.009C266.251 212.262 266.582 212.453 266.941 212.571C267.301 212.688 267.68 212.728 268.056 212.689H268.336L270.765 211.936C270.603 211.987 270.436 212.019 270.267 212.033C270.991 211.935 271.654 211.573 272.129 211.018C272.604 210.462 272.858 209.751 272.842 209.02V200.152C272.818 184.105 265.882 175.481 260.33 171.144Z" fill="#FD6F00"/>
<path d="M245.037 248.027C244.036 248.027 243.045 247.811 242.134 247.395L234.542 243.884C234.423 243.842 234.315 243.775 234.223 243.689C234.131 243.602 234.058 243.497 234.009 243.381C233.96 243.265 233.936 243.14 233.938 243.014C233.939 242.888 233.967 242.763 234.02 242.648C234.072 242.534 234.147 242.431 234.242 242.347C234.336 242.263 234.446 242.199 234.566 242.16C234.686 242.121 234.813 242.107 234.938 242.12C235.064 242.132 235.185 242.17 235.295 242.232L242.887 245.743C243.856 246.193 244.94 246.33 245.99 246.134C247.04 245.938 248.002 245.419 248.743 244.65L256.031 237.118C256.202 236.947 256.433 236.852 256.675 236.852C256.916 236.852 257.148 236.947 257.319 237.118C257.486 237.29 257.58 237.521 257.58 237.762C257.58 238.002 257.486 238.233 257.319 238.406L250.03 245.937C249.381 246.603 248.605 247.132 247.747 247.491C246.889 247.85 245.967 248.032 245.037 248.027Z" fill="#FD6F00"/>
<path opacity="0.5" d="M245.037 248.027C244.036 248.027 243.045 247.811 242.134 247.395L234.542 243.884C234.423 243.842 234.315 243.775 234.223 243.689C234.131 243.602 234.058 243.497 234.009 243.381C233.96 243.265 233.936 243.14 233.938 243.014C233.939 242.888 233.967 242.763 234.02 242.648C234.072 242.534 234.147 242.431 234.242 242.347C234.336 242.263 234.446 242.199 234.566 242.16C234.686 242.121 234.813 242.107 234.938 242.12C235.064 242.132 235.185 242.17 235.295 242.232L242.887 245.743C243.856 246.193 244.94 246.33 245.99 246.134C247.04 245.938 248.002 245.419 248.743 244.65L256.031 237.118C256.202 236.947 256.433 236.852 256.675 236.852C256.916 236.852 257.148 236.947 257.319 237.118C257.486 237.29 257.58 237.521 257.58 237.762C257.58 238.002 257.486 238.233 257.319 238.406L250.03 245.937C249.381 246.603 248.605 247.132 247.747 247.491C246.889 247.85 245.967 248.032 245.037 248.027Z" fill="black"/>
<path d="M236.534 241.333C236.534 242.035 236.326 242.721 235.936 243.304C235.546 243.887 234.992 244.342 234.344 244.61C233.696 244.879 232.983 244.949 232.295 244.812C231.606 244.675 230.974 244.338 230.478 243.841C229.982 243.345 229.644 242.713 229.508 242.025C229.371 241.337 229.441 240.624 229.709 239.976C229.978 239.328 230.433 238.774 231.016 238.384C231.599 237.994 232.285 237.786 232.987 237.786C233.927 237.786 234.83 238.16 235.495 238.825C236.16 239.49 236.534 240.392 236.534 241.333Z" fill="#FD6F00"/>
<path opacity="0.5" d="M236.534 241.333C236.534 242.035 236.326 242.721 235.936 243.304C235.546 243.887 234.992 244.342 234.344 244.61C233.696 244.879 232.983 244.949 232.295 244.812C231.606 244.675 230.974 244.338 230.478 243.841C229.982 243.345 229.644 242.713 229.508 242.025C229.371 241.337 229.441 240.624 229.709 239.976C229.978 239.328 230.433 238.774 231.016 238.384C231.599 237.994 232.285 237.786 232.987 237.786C233.927 237.786 234.83 238.16 235.495 238.825C236.16 239.49 236.534 240.392 236.534 241.333Z" fill="black"/>
<path d="M272.82 200.153V209.02C272.835 209.751 272.581 210.462 272.106 211.018C271.631 211.573 270.969 211.935 270.244 212.033C269.844 212.076 269.44 212.034 269.057 211.91C268.674 211.785 268.321 211.582 268.022 211.313C267.723 211.044 267.484 210.714 267.321 210.347C267.157 209.979 267.073 209.581 267.074 209.178V200.153C267.081 195.845 266.216 191.581 264.532 187.616C262.848 183.651 260.379 180.068 257.274 177.082C254.169 174.096 250.492 171.77 246.465 170.242C242.437 168.714 238.142 168.017 233.838 168.192C238.211 167.336 242.66 166.929 247.115 166.977H248.172C252.572 167.023 256.837 168.503 260.32 171.193C265.883 175.481 272.82 184.106 272.82 200.153Z" fill="#FD6F00"/>
<path opacity="0.5" d="M272.82 200.153V209.02C272.835 209.751 272.581 210.462 272.106 211.018C271.631 211.573 270.969 211.935 270.244 212.033C269.844 212.076 269.44 212.034 269.057 211.91C268.674 211.785 268.321 211.582 268.022 211.313C267.723 211.044 267.484 210.714 267.321 210.347C267.157 209.979 267.073 209.581 267.074 209.178V200.153C267.081 195.845 266.216 191.581 264.532 187.616C262.848 183.651 260.379 180.068 257.274 177.082C254.169 174.096 250.492 171.77 246.465 170.242C242.437 168.714 238.142 168.017 233.838 168.192C238.211 167.336 242.66 166.929 247.115 166.977H248.172C252.572 167.023 256.837 168.503 260.32 171.193C265.883 175.481 272.82 184.106 272.82 200.153Z" fill="black"/>
<path d="M259.165 367.268C259.165 367.268 253.286 383.461 274.301 390.75C274.301 390.75 281.164 380.667 274.301 372.419C267.438 364.17 259.165 367.268 259.165 367.268Z" fill="#FD6F00"/>
<path opacity="0.7" d="M259.165 367.268C259.165 367.268 253.286 383.461 274.301 390.75C274.301 390.75 281.164 380.667 274.301 372.419C267.438 364.17 259.165 367.268 259.165 367.268Z" fill="black"/>
<path d="M266.538 368.009C266.538 368.009 246.009 375.528 246.118 378.444C246.227 381.359 254.84 379.367 254.84 379.367L251.694 381.432C248.381 383.594 245.814 386.724 244.344 390.397C244.024 391.207 244.013 392.106 244.313 392.924C244.613 393.742 245.204 394.421 245.972 394.831L253.771 398.961C254.211 399.195 254.694 399.338 255.191 399.381C255.687 399.425 256.188 399.369 256.662 399.216C257.137 399.063 257.576 398.817 257.954 398.491C258.331 398.166 258.64 397.768 258.861 397.321C259.296 396.462 259.896 395.698 260.628 395.072C261.36 394.447 262.209 393.973 263.125 393.677C267.364 392.268 275.272 388.21 278.443 377.107L266.538 368.009Z" fill="#945959"/>
<path d="M272.699 263.696C272.699 263.696 261.766 269.77 267.572 288.21C273.379 306.65 284.275 335.258 284.275 335.258L259.166 367.267C261.849 367.591 264.433 368.476 266.75 369.866C269.067 371.256 271.065 373.119 272.613 375.333C274.097 377.585 275.023 380.157 275.317 382.837C275.611 385.517 275.263 388.229 274.302 390.749L305.473 350.661C308.355 346.957 310.269 342.592 311.041 337.962C311.813 333.332 311.419 328.582 309.895 324.143L296.532 285.125C294.899 280.358 292.185 276.035 288.602 272.492C285.019 268.95 280.665 266.284 275.881 264.705L272.699 263.696Z" fill="#FD6F00"/>
<path d="M88.1513 154.769L39.8401 126.829C39.2842 126.444 38.6409 126.203 37.9686 126.129C37.2962 126.055 36.6159 126.149 35.9893 126.404C35.8572 126.465 35.7312 126.538 35.6127 126.623L25.105 132.782H25.1779C23.8538 133.535 23.0156 135.284 23.0156 137.786V191.528C23.0156 196.071 25.7731 201.355 29.1866 203.323L77.4978 231.263C78.1108 231.706 78.8405 231.96 79.5963 231.992C80.3521 232.024 81.1008 231.834 81.7495 231.445C81.7167 231.458 81.6875 231.479 81.6645 231.506L92.0993 225.432C93.4598 224.703 94.3223 222.929 94.3223 220.39V166.564C94.3223 162.021 91.6134 156.737 88.1513 154.769Z" fill="#FD6F00"/>
<path d="M92.5978 159.859C91.6204 157.78 90.0802 156.017 88.1518 154.769L39.8406 126.829C39.2846 126.444 38.6414 126.203 37.969 126.129C37.2967 126.055 36.6164 126.149 35.9898 126.404C35.8577 126.465 35.7316 126.538 35.6132 126.623L25.1055 132.782C25.7482 132.453 26.469 132.308 27.1889 132.361C27.9087 132.415 28.6 132.665 29.1871 133.085L77.4983 161.025C79.4923 162.329 81.0727 164.175 82.0536 166.346L92.5978 159.859Z" fill="#FD6F00"/>
<path d="M83.6684 226.537C83.6684 228.966 82.891 230.655 81.6641 231.396L92.0989 225.322C93.4594 224.593 94.3219 222.82 94.3219 220.281V166.564C94.2705 164.226 93.6802 161.931 92.5969 159.858L82.0528 166.345C83.0652 168.357 83.6171 170.569 83.6684 172.82V226.537Z" fill="#FD6F00"/>
<path opacity="0.3" d="M92.5978 159.859C91.6204 157.78 90.0802 156.017 88.1518 154.769L39.8406 126.829C39.2846 126.444 38.6414 126.203 37.969 126.129C37.2967 126.055 36.6164 126.149 35.9898 126.404C35.8577 126.465 35.7316 126.538 35.6132 126.623L25.1055 132.782C25.7482 132.453 26.469 132.308 27.1889 132.361C27.9087 132.415 28.6 132.665 29.1871 133.085L77.4983 161.025C79.4923 162.329 81.0727 164.175 82.0536 166.346L92.5978 159.859Z" fill="black"/>
<path opacity="0.6" d="M83.6684 226.537C83.6684 228.966 82.891 230.655 81.6641 231.396L92.0989 225.322C93.4594 224.593 94.3219 222.82 94.3219 220.281V166.564C94.2705 164.226 93.6802 161.931 92.5969 159.858L82.0528 166.345C83.0652 168.357 83.6171 170.569 83.6684 172.82V226.537Z" fill="black"/>
<path d="M69.5038 188.212C69.5038 195.172 66.7462 197.541 62.616 195.148C61.4767 194.499 60.4804 193.627 59.6871 192.583C58.8938 191.539 58.3199 190.345 57.9999 189.074C56.7852 190.568 54.9023 190.665 52.2541 189.135C47.9052 186.62 44.4796 180.631 44.4796 174.813C44.4796 168.994 47.8688 166.99 52.2541 169.516C54.4794 170.828 56.2768 172.756 57.429 175.068V172.772L62.0087 175.42V188.005C61.9405 188.667 62.055 189.336 62.3398 189.937C62.6246 190.539 63.0689 191.051 63.6243 191.419C65.1671 192.317 66.1146 190.799 66.1146 186.292C66.1146 178.408 61.0611 170.051 53.5903 165.738C46.1195 161.426 41.0783 164.426 41.0783 172.541C41.1761 176.847 42.3626 181.058 44.5271 184.781C46.6916 188.505 49.7636 191.62 53.4567 193.836C55.462 195.071 57.7391 195.797 60.0893 195.95L61.1705 200.141C58.4339 199.92 55.7895 199.049 53.4567 197.602C43.7386 191.977 37.3125 180.656 37.3125 170.403C37.3125 160.15 43.7993 156.433 53.5903 162.094C63.0534 167.548 69.5038 178.469 69.5038 188.212ZM57.5019 182.369C57.5255 180.828 57.1496 179.308 56.4109 177.956C55.6722 176.604 54.5958 175.467 53.2866 174.655C50.8571 173.233 49.12 174.23 49.12 177.534C49.0888 179.077 49.4558 180.601 50.1856 181.961C50.9155 183.321 51.9835 184.469 53.2866 185.296C55.7162 186.669 57.5019 185.782 57.5019 182.369Z" fill="#FD6F00"/>
<g opacity="0.9">
<path d="M69.5038 188.212C69.5038 195.172 66.7462 197.541 62.616 195.148C61.4767 194.499 60.4804 193.627 59.6871 192.583C58.8938 191.539 58.3199 190.345 57.9999 189.074C56.7852 190.568 54.9023 190.665 52.2541 189.135C47.9052 186.62 44.4796 180.631 44.4796 174.813C44.4796 168.994 47.8688 166.99 52.2541 169.516C54.4794 170.828 56.2768 172.756 57.429 175.068V172.772L62.0087 175.42V188.005C61.9405 188.667 62.055 189.336 62.3398 189.937C62.6246 190.539 63.0689 191.051 63.6243 191.419C65.1671 192.317 66.1146 190.799 66.1146 186.292C66.1146 178.408 61.0611 170.051 53.5903 165.738C46.1195 161.426 41.0783 164.426 41.0783 172.541C41.1761 176.847 42.3626 181.058 44.5271 184.781C46.6916 188.505 49.7636 191.62 53.4567 193.836C55.462 195.071 57.7391 195.797 60.0893 195.95L61.1705 200.141C58.4339 199.92 55.7895 199.049 53.4567 197.602C43.7386 191.977 37.3125 180.656 37.3125 170.403C37.3125 160.15 43.7993 156.433 53.5903 162.094C63.0534 167.548 69.5038 178.469 69.5038 188.212ZM57.5019 182.369C57.5255 180.828 57.1496 179.308 56.4109 177.956C55.6722 176.604 54.5958 175.467 53.2866 174.655C50.8571 173.233 49.12 174.23 49.12 177.534C49.0888 179.077 49.4558 180.601 50.1856 181.961C50.9155 183.321 51.9835 184.469 53.2866 185.296C55.7162 186.669 57.5019 185.782 57.5019 182.369Z" fill="white"/>
</g>
<path d="M88.1513 250.468L39.8401 222.528C39.2849 222.141 38.6409 221.9 37.9677 221.828C37.2945 221.755 36.614 221.854 35.9893 222.115C35.8572 222.176 35.7312 222.249 35.6127 222.334L25.105 228.493H25.1779C23.8538 229.246 23.0156 230.995 23.0156 233.485V287.202C23.0156 291.758 25.7731 297.03 29.1866 298.998L77.4978 326.937C78.1095 327.384 78.8396 327.639 79.5961 327.672C80.3526 327.704 81.1019 327.512 81.7495 327.12L81.6645 327.192L92.0993 321.058C93.4598 320.341 94.3223 318.628 94.3223 316.017V262.251C94.3223 257.708 91.6134 252.436 88.1513 250.468Z" fill="#FD6F00"/>
<path d="M92.5978 255.558C91.6237 253.477 90.0828 251.713 88.1518 250.468L39.8406 222.528C39.2854 222.141 38.6413 221.9 37.9682 221.828C37.295 221.755 36.6145 221.854 35.9898 222.115C35.8577 222.176 35.7316 222.249 35.6132 222.334L25.1055 228.493C25.7468 228.161 26.4671 228.013 27.1873 228.064C27.9074 228.116 28.5994 228.365 29.1871 228.784L77.4983 256.724C79.4954 258.029 81.0764 259.88 82.0536 262.057L92.5978 255.558Z" fill="#FD6F00"/>
<path d="M83.6684 322.224C83.6684 324.653 82.891 326.342 81.6641 327.144L92.0989 321.009C93.4594 320.292 94.3219 318.58 94.3219 315.968V262.251C94.2704 259.917 93.6801 257.626 92.5969 255.558L82.0528 262.044C83.065 264.052 83.6169 266.26 83.6684 268.507V322.224Z" fill="#FD6F00"/>
<path opacity="0.3" d="M92.5978 255.558C91.6237 253.477 90.0828 251.713 88.1518 250.468L39.8406 222.528C39.2854 222.141 38.6413 221.9 37.9682 221.828C37.295 221.755 36.6145 221.854 35.9898 222.115C35.8577 222.176 35.7316 222.249 35.6132 222.334L25.1055 228.493C25.7468 228.161 26.4671 228.013 27.1873 228.064C27.9074 228.116 28.5994 228.365 29.1871 228.784L77.4983 256.724C79.4954 258.029 81.0764 259.88 82.0536 262.057L92.5978 255.558Z" fill="black"/>
<path opacity="0.6" d="M83.6684 322.224C83.6684 324.653 82.891 326.342 81.6641 327.144L92.0989 321.009C93.4594 320.292 94.3219 318.58 94.3219 315.968V262.251C94.2704 259.917 93.6801 257.626 92.5969 255.558L82.0528 262.044C83.065 264.052 83.6169 266.26 83.6684 268.507V322.224Z" fill="black"/>
<path d="M47.9426 274.484L36.293 255.558V281.201L47.9426 274.484Z" fill="#FD6F00"/>
<path d="M58.7656 279.939L70.3909 300.067V274.46L58.7656 279.939Z" fill="#FD6F00"/>
<path d="M38.0547 254.695L50.0201 274.132C50.0708 274.174 50.1157 274.223 50.1537 274.277C50.1643 274.325 50.1643 274.375 50.1537 274.423L53.713 280.205L56.7256 278.784C56.7725 278.733 56.8256 278.688 56.8835 278.65C57.0023 278.581 57.1352 278.54 57.2723 278.529L69.4199 272.832L38.0547 254.695Z" fill="#FD6F00"/>
<path d="M57.0056 280.764L53.75 282.295C53.6245 282.353 53.4875 282.382 53.3491 282.38C53.1814 282.382 53.0161 282.34 52.8693 282.259C52.7224 282.178 52.5989 282.061 52.5109 281.918L48.9517 276.136L37.2656 282.89L68.7159 301.038L57.0056 280.764Z" fill="#FD6F00"/>
<g opacity="0.9">
<path d="M47.9426 274.484L36.293 255.558V281.201L47.9426 274.484Z" fill="white"/>
<path d="M58.7656 279.938L70.3909 300.066V274.459L58.7656 279.938Z" fill="white"/>
<path d="M38.0547 254.695L50.0201 274.132C50.0708 274.174 50.1157 274.223 50.1537 274.277C50.1643 274.325 50.1643 274.375 50.1537 274.423L53.713 280.205L56.7256 278.784C56.7725 278.733 56.8256 278.688 56.8835 278.65C57.0023 278.581 57.1352 278.54 57.2723 278.529L69.4199 272.832L38.0547 254.695Z" fill="white"/>
<path d="M57.0056 280.764L53.75 282.295C53.6245 282.353 53.4875 282.382 53.3491 282.38C53.1814 282.382 53.0161 282.34 52.8693 282.259C52.7224 282.178 52.5989 282.061 52.5109 281.918L48.9517 276.136L37.2656 282.89L68.7159 301.038L57.0056 280.764Z" fill="white"/>
</g>
<path d="M88.1513 59.1183L39.8401 31.1787C39.2849 30.7912 38.6409 30.5502 37.9677 30.478C37.2945 30.4058 36.614 30.5048 35.9893 30.7657C35.8572 30.8267 35.7312 30.8999 35.6127 30.9843L25.105 37.1432H25.1779C23.8538 37.8842 23.0156 39.6456 23.0156 42.1359V95.8528C23.0156 100.396 25.7731 105.68 29.1866 107.648L77.4978 135.588C78.1095 136.034 78.8396 136.289 79.5961 136.322C80.3526 136.354 81.1019 136.162 81.7495 135.77L81.6645 135.831L92.0993 129.757C93.4598 129.04 94.3223 127.327 94.3223 124.716V70.8651C94.3223 66.3218 91.6134 61.0376 88.1513 59.1183Z" fill="#FD6F00"/>
<path d="M92.5978 64.1717C91.6239 62.0875 90.0832 60.3194 88.1518 59.0697L39.8406 31.1787C39.2854 30.7912 38.6413 30.5502 37.9682 30.478C37.295 30.4058 36.6145 30.5048 35.9898 30.7657C35.8577 30.8267 35.7316 30.8999 35.6132 30.9843L25.1055 37.1432C25.7468 36.8116 26.4671 36.6633 27.1873 36.7148C27.9074 36.7662 28.5994 37.0153 29.1871 37.4347L77.4983 65.3743C79.4954 66.6797 81.0764 68.5305 82.0536 70.7071L92.5978 64.1717Z" fill="#FD6F00"/>
<path d="M83.6684 130.79C83.6684 133.219 82.891 134.908 81.6641 135.649L92.0989 129.575C93.4594 128.858 94.3219 127.145 94.3219 124.534V70.8652C94.2704 68.531 93.6801 66.2402 92.5969 64.1719L82.0528 70.6587C83.065 72.666 83.6169 74.8738 83.6684 77.1213V130.79Z" fill="#FD6F00"/>
<path opacity="0.3" d="M92.5978 64.1717C91.6239 62.0875 90.0832 60.3194 88.1518 59.0697L39.8406 31.1787C39.2854 30.7912 38.6413 30.5502 37.9682 30.478C37.295 30.4058 36.6145 30.5048 35.9898 30.7657C35.8577 30.8267 35.7316 30.8999 35.6132 30.9843L25.1055 37.1432C25.7468 36.8116 26.4671 36.6633 27.1873 36.7148C27.9074 36.7662 28.5994 37.0153 29.1871 37.4347L77.4983 65.3743C79.4954 66.6797 81.0764 68.5305 82.0536 70.7071L92.5978 64.1717Z" fill="black"/>
<path opacity="0.6" d="M83.6684 130.79C83.6684 133.219 82.891 134.908 81.6641 135.649L92.0989 129.575C93.4594 128.858 94.3219 127.145 94.3219 124.534V70.8652C94.2704 68.531 93.6801 66.2402 92.5969 64.1719L82.0528 70.6587C83.065 72.666 83.6169 74.8738 83.6684 77.1213V130.79Z" fill="black"/>
<path d="M67.8655 107.709C66.0069 104.647 64.1362 101.635 62.2776 98.5493C61.9828 97.9649 61.5707 97.4475 61.067 97.0295C60.5633 96.6115 59.9788 96.3018 59.35 96.1198C58.4511 95.9376 57.5522 95.7311 56.629 95.4638C56.3002 95.3267 56.0236 95.0884 55.8394 94.7835C52.7981 89.5784 50.3803 84.0333 48.6358 78.2627C48.5987 78.1394 48.5882 78.0095 48.6049 77.8818C48.6217 77.7541 48.6653 77.6314 48.733 77.5217C49.3039 76.9508 49.9478 76.4284 50.5309 75.9182C51.1139 75.408 51.4176 74.2297 50.9925 72.6991C50.0935 69.4557 49.2311 66.2123 48.3321 62.981C48.1582 62.0629 47.7455 61.2068 47.1356 60.4988C46.5257 59.7908 45.7402 59.2559 44.8579 58.948C42.8989 58.4034 40.8193 58.4798 38.9056 59.1666C38.1645 59.446 37.7758 60.1142 37.7637 61.2682C38.0795 63.4912 38.286 65.6899 38.7112 67.9494C41.7076 84.2434 48.9152 99.2255 60.334 112.896C60.6321 113.349 61.0326 113.726 61.5031 113.996C61.9737 114.266 62.5011 114.422 63.0429 114.451C64.9334 114.406 66.7496 113.706 68.1814 112.471C69.2625 111.499 69.1532 109.774 67.8655 107.709Z" fill="#FD6F00"/>
<path d="M67.7183 91.1515C67.4642 87.6574 66.5011 84.2517 64.8879 81.1419C63.6834 78.7125 62.1506 76.4603 60.3325 74.4485C59.8587 73.914 59.4579 73.744 59.2149 74.1448C58.972 74.5457 59.2149 75.1166 59.6765 75.639L60.1503 76.1856C63.5079 80.0614 65.6239 84.8563 66.2241 89.9489C66.2182 90.3204 66.2549 90.6913 66.3334 91.0544C66.486 91.4721 66.731 91.85 67.0502 92.1598C67.3053 92.342 67.5968 92.1598 67.8033 92.1598C67.7304 91.6617 67.7426 91.4066 67.7183 91.1515Z" fill="#FD6F00"/>
<path d="M56.7131 81.1784C58.2386 82.8562 59.1655 84.992 59.3492 87.2522C59.4292 87.5959 59.5559 87.9269 59.7258 88.2362C60.4668 88.8436 60.8312 88.637 60.8312 87.8717C60.5715 84.9738 59.3729 82.2398 57.4177 80.0851C56.9561 79.6113 56.5795 79.4656 56.3609 79.8664C56.2822 80.0953 56.2737 80.3425 56.3365 80.5763C56.3992 80.81 56.5304 81.0197 56.7131 81.1784Z" fill="#FD6F00"/>
<g opacity="0.9">
<path d="M67.8636 107.709C66.005 104.647 64.1343 101.635 62.2757 98.5493C61.9809 97.9649 61.5688 97.4475 61.065 97.0295C60.5613 96.6115 59.9769 96.3018 59.3481 96.1198C58.4492 95.9376 57.5502 95.7311 56.627 95.4638C56.2982 95.3267 56.0217 95.0884 55.8374 94.7835C52.7961 89.5784 50.3783 84.0333 48.6339 78.2627C48.5968 78.1394 48.5862 78.0095 48.603 77.8818C48.6197 77.7541 48.6634 77.6314 48.731 77.5217C49.302 76.9508 49.9458 76.4284 50.5289 75.9182C51.112 75.408 51.4157 74.2297 50.9905 72.6991C50.0916 69.4557 49.2291 66.2123 48.3302 62.981C48.1562 62.0629 47.7436 61.2068 47.1337 60.4988C46.5238 59.7908 45.7382 59.2559 44.8559 58.948C42.897 58.4034 40.8173 58.4798 38.9036 59.1666C38.1626 59.446 37.7739 60.1142 37.7617 61.2682C38.0776 63.4912 38.2841 65.6899 38.7092 67.9494C41.7057 84.2434 48.9133 99.2255 60.332 112.896C60.6302 113.349 61.0306 113.726 61.5012 113.996C61.9717 114.266 62.4992 114.422 63.041 114.451C64.9314 114.406 66.7476 113.706 68.1794 112.471C69.2606 111.499 69.1512 109.774 67.8636 107.709Z" fill="white"/>
<path d="M67.7183 91.1515C67.4642 87.6574 66.5011 84.2517 64.8879 81.1419C63.6834 78.7125 62.1506 76.4603 60.3325 74.4485C59.8587 73.914 59.4579 73.744 59.2149 74.1448C58.972 74.5457 59.2149 75.1166 59.6765 75.639L60.1503 76.1856C63.5079 80.0614 65.6239 84.8563 66.2241 89.9489C66.2182 90.3204 66.2549 90.6913 66.3334 91.0544C66.486 91.4721 66.731 91.85 67.0502 92.1598C67.3053 92.342 67.5968 92.1598 67.8033 92.1598C67.7304 91.6617 67.7426 91.4066 67.7183 91.1515Z" fill="white"/>
<path d="M56.7112 81.1784C58.2366 82.8562 59.1636 84.992 59.3472 87.2522C59.4272 87.5959 59.5539 87.9269 59.7238 88.2362C60.4648 88.8436 60.8292 88.637 60.8292 87.8717C60.5695 84.9738 59.371 82.2398 57.4158 80.0851C56.9541 79.6113 56.5776 79.4656 56.3589 79.8664C56.2803 80.0953 56.2718 80.3425 56.3345 80.5763C56.3973 80.81 56.5284 81.0197 56.7112 81.1784Z" fill="white"/>
</g>
<path d="M336.024 26.9028L347.406 33.3775V29.3444C347.406 29.065 347.406 28.7735 347.406 28.4941C347.406 28.2147 347.406 27.9475 347.406 27.6802V27.5344C347.819 22.2016 351.865 20.1487 356.797 23.0034C359.029 24.3767 360.943 26.2115 362.409 28.3848C363.514 21.0962 369.43 18.5209 376.585 22.6389C384.53 27.2308 390.968 38.4309 390.968 47.5659V56.1907C390.956 56.8807 391.127 57.5614 391.461 58.1648C391.796 58.7682 392.284 59.273 392.875 59.6285L399.581 63.5522C401.028 64.4102 402.227 65.6292 403.062 67.09C403.897 68.5507 404.338 70.2031 404.342 71.8855C404.343 72.5835 404.159 73.2692 403.81 73.8736C403.461 74.478 402.958 74.9797 402.354 75.3283C401.749 75.6768 401.063 75.8599 400.365 75.859C399.667 75.8581 398.982 75.6733 398.378 75.3233L336.194 39.3784C334.544 38.4204 333.174 37.0473 332.22 35.3958C331.265 33.7442 330.759 31.8716 330.752 29.964C330.751 29.3465 330.913 28.7397 331.221 28.2044C331.529 27.6691 331.972 27.2242 332.506 26.9141C333.04 26.604 333.646 26.4398 334.263 26.4378C334.881 26.4358 335.488 26.5962 336.024 26.9028Z" fill="#E6E6E6"/>
<path d="M422.795 25.2146L431.068 29.9643V27.0003C431.068 26.7937 431.068 26.5872 431.068 26.3807C431.068 26.1742 431.068 25.9799 431.068 25.7855V25.7126C431.371 21.8375 434.311 20.3433 437.895 22.4206C439.517 23.4149 440.909 24.7444 441.976 26.32C442.79 21.0479 447.091 19.1407 452.29 22.1412C458.072 25.4818 462.749 33.5964 462.749 40.2655V46.5458C462.753 47.0381 462.885 47.5209 463.132 47.9468C463.379 48.3727 463.733 48.7271 464.158 48.9753L469.017 51.83C470.074 52.4518 470.95 53.3398 471.558 54.4054C472.165 55.4711 472.483 56.6773 472.479 57.9039C472.478 58.4063 472.347 58.8998 472.097 59.3358C471.847 59.7718 471.489 60.1352 471.056 60.3902C470.623 60.6453 470.131 60.7831 469.629 60.7902C469.126 60.7973 468.631 60.6733 468.191 60.4306L422.917 34.2888C421.717 33.5948 420.721 32.5977 420.028 31.3973C419.335 30.197 418.97 28.8357 418.969 27.4497C418.968 27.0011 419.085 26.5602 419.308 26.1709C419.531 25.7817 419.852 25.4577 420.239 25.2315C420.626 25.0052 421.066 24.8846 421.515 24.8816C421.963 24.8787 422.405 24.9935 422.795 25.2146Z" fill="#E6E6E6"/>
</svg>
